G04 #@! TF.GenerationSoftware,KiCad,Pcbnew,(5.0.0)*
G04 #@! TF.CreationDate,2019-01-02T23:22:05-06:00*
G04 #@! TF.ProjectId,ESC_2Layer,4553435F324C617965722E6B69636164,rev?*
G04 #@! TF.SameCoordinates,PX2fc7720PY3944a50*
G04 #@! TF.FileFunction,Soldermask,Bot*
G04 #@! TF.FilePolarity,Negative*
%FSLAX46Y46*%
G04 Gerber Fmt 4.6, Leading zero omitted, Abs format (unit mm)*
G04 Created by KiCad (PCBNEW (5.0.0)) date 01/02/19 23:22:05*
%MOMM*%
%LPD*%
G01*
G04 APERTURE LIST*
%ADD10R,1.650800X1.650800*%
%ADD11R,1.750800X1.750800*%
%ADD12O,1.750800X1.750800*%
%ADD13R,0.650800X0.750800*%
%ADD14R,1.290000X0.840000*%
%ADD15R,3.440000X4.340000*%
%ADD16R,1.690000X4.840000*%
%ADD17C,0.100000*%
%ADD18C,1.025800*%
%ADD19R,0.750800X0.650800*%
%ADD20C,1.050800*%
%ADD21C,0.254000*%
G04 APERTURE END LIST*
D10*
G04 #@! TO.C,C7*
X1100000Y-13950000D03*
G04 #@! TD*
D11*
G04 #@! TO.C,J1*
X10225000Y-32279000D03*
D12*
X7685000Y-32279000D03*
X10225000Y-29739000D03*
X7685000Y-29739000D03*
G04 #@! TD*
D13*
G04 #@! TO.C,D6*
X42418000Y-25040000D03*
X43818000Y-25040000D03*
G04 #@! TD*
G04 #@! TO.C,D2*
X43818000Y-2180000D03*
X42418000Y-2180000D03*
G04 #@! TD*
G04 #@! TO.C,D4*
X43818000Y-13610000D03*
X42418000Y-13610000D03*
G04 #@! TD*
D14*
G04 #@! TO.C,Q4*
X37235000Y-15510000D03*
D15*
X40505000Y-17420000D03*
D16*
X42705000Y-17420000D03*
D14*
X37235000Y-16780000D03*
X37235000Y-19330000D03*
X37235000Y-18060000D03*
G04 #@! TD*
G04 #@! TO.C,Q6*
X37235000Y-26940000D03*
D15*
X40505000Y-28850000D03*
D16*
X42705000Y-28850000D03*
D14*
X37235000Y-28210000D03*
X37235000Y-30760000D03*
X37235000Y-29490000D03*
G04 #@! TD*
G04 #@! TO.C,Q2*
X37235000Y-6630000D03*
X37235000Y-7900000D03*
X37235000Y-5350000D03*
D16*
X42705000Y-5990000D03*
D15*
X40505000Y-5990000D03*
D14*
X37235000Y-4080000D03*
G04 #@! TD*
D17*
G04 #@! TO.C,C16*
G36*
X12079086Y-14155835D02*
X12103981Y-14159528D01*
X12128394Y-14165643D01*
X12152089Y-14174121D01*
X12174840Y-14184881D01*
X12196426Y-14197820D01*
X12216640Y-14212811D01*
X12235288Y-14229712D01*
X12252189Y-14248360D01*
X12267180Y-14268574D01*
X12280119Y-14290160D01*
X12290879Y-14312911D01*
X12299357Y-14336606D01*
X12305472Y-14361019D01*
X12309165Y-14385914D01*
X12310400Y-14411050D01*
X12310400Y-15348950D01*
X12309165Y-15374086D01*
X12305472Y-15398981D01*
X12299357Y-15423394D01*
X12290879Y-15447089D01*
X12280119Y-15469840D01*
X12267180Y-15491426D01*
X12252189Y-15511640D01*
X12235288Y-15530288D01*
X12216640Y-15547189D01*
X12196426Y-15562180D01*
X12174840Y-15575119D01*
X12152089Y-15585879D01*
X12128394Y-15594357D01*
X12103981Y-15600472D01*
X12079086Y-15604165D01*
X12053950Y-15605400D01*
X11541050Y-15605400D01*
X11515914Y-15604165D01*
X11491019Y-15600472D01*
X11466606Y-15594357D01*
X11442911Y-15585879D01*
X11420160Y-15575119D01*
X11398574Y-15562180D01*
X11378360Y-15547189D01*
X11359712Y-15530288D01*
X11342811Y-15511640D01*
X11327820Y-15491426D01*
X11314881Y-15469840D01*
X11304121Y-15447089D01*
X11295643Y-15423394D01*
X11289528Y-15398981D01*
X11285835Y-15374086D01*
X11284600Y-15348950D01*
X11284600Y-14411050D01*
X11285835Y-14385914D01*
X11289528Y-14361019D01*
X11295643Y-14336606D01*
X11304121Y-14312911D01*
X11314881Y-14290160D01*
X11327820Y-14268574D01*
X11342811Y-14248360D01*
X11359712Y-14229712D01*
X11378360Y-14212811D01*
X11398574Y-14197820D01*
X11420160Y-14184881D01*
X11442911Y-14174121D01*
X11466606Y-14165643D01*
X11491019Y-14159528D01*
X11515914Y-14155835D01*
X11541050Y-14154600D01*
X12053950Y-14154600D01*
X12079086Y-14155835D01*
X12079086Y-14155835D01*
G37*
D18*
X11797500Y-14880000D03*
D17*
G36*
X10204086Y-14155835D02*
X10228981Y-14159528D01*
X10253394Y-14165643D01*
X10277089Y-14174121D01*
X10299840Y-14184881D01*
X10321426Y-14197820D01*
X10341640Y-14212811D01*
X10360288Y-14229712D01*
X10377189Y-14248360D01*
X10392180Y-14268574D01*
X10405119Y-14290160D01*
X10415879Y-14312911D01*
X10424357Y-14336606D01*
X10430472Y-14361019D01*
X10434165Y-14385914D01*
X10435400Y-14411050D01*
X10435400Y-15348950D01*
X10434165Y-15374086D01*
X10430472Y-15398981D01*
X10424357Y-15423394D01*
X10415879Y-15447089D01*
X10405119Y-15469840D01*
X10392180Y-15491426D01*
X10377189Y-15511640D01*
X10360288Y-15530288D01*
X10341640Y-15547189D01*
X10321426Y-15562180D01*
X10299840Y-15575119D01*
X10277089Y-15585879D01*
X10253394Y-15594357D01*
X10228981Y-15600472D01*
X10204086Y-15604165D01*
X10178950Y-15605400D01*
X9666050Y-15605400D01*
X9640914Y-15604165D01*
X9616019Y-15600472D01*
X9591606Y-15594357D01*
X9567911Y-15585879D01*
X9545160Y-15575119D01*
X9523574Y-15562180D01*
X9503360Y-15547189D01*
X9484712Y-15530288D01*
X9467811Y-15511640D01*
X9452820Y-15491426D01*
X9439881Y-15469840D01*
X9429121Y-15447089D01*
X9420643Y-15423394D01*
X9414528Y-15398981D01*
X9410835Y-15374086D01*
X9409600Y-15348950D01*
X9409600Y-14411050D01*
X9410835Y-14385914D01*
X9414528Y-14361019D01*
X9420643Y-14336606D01*
X9429121Y-14312911D01*
X9439881Y-14290160D01*
X9452820Y-14268574D01*
X9467811Y-14248360D01*
X9484712Y-14229712D01*
X9503360Y-14212811D01*
X9523574Y-14197820D01*
X9545160Y-14184881D01*
X9567911Y-14174121D01*
X9591606Y-14165643D01*
X9616019Y-14159528D01*
X9640914Y-14155835D01*
X9666050Y-14154600D01*
X10178950Y-14154600D01*
X10204086Y-14155835D01*
X10204086Y-14155835D01*
G37*
D18*
X9922500Y-14880000D03*
G04 #@! TD*
D17*
G04 #@! TO.C,C8*
G36*
X27319086Y-14155835D02*
X27343981Y-14159528D01*
X27368394Y-14165643D01*
X27392089Y-14174121D01*
X27414840Y-14184881D01*
X27436426Y-14197820D01*
X27456640Y-14212811D01*
X27475288Y-14229712D01*
X27492189Y-14248360D01*
X27507180Y-14268574D01*
X27520119Y-14290160D01*
X27530879Y-14312911D01*
X27539357Y-14336606D01*
X27545472Y-14361019D01*
X27549165Y-14385914D01*
X27550400Y-14411050D01*
X27550400Y-15348950D01*
X27549165Y-15374086D01*
X27545472Y-15398981D01*
X27539357Y-15423394D01*
X27530879Y-15447089D01*
X27520119Y-15469840D01*
X27507180Y-15491426D01*
X27492189Y-15511640D01*
X27475288Y-15530288D01*
X27456640Y-15547189D01*
X27436426Y-15562180D01*
X27414840Y-15575119D01*
X27392089Y-15585879D01*
X27368394Y-15594357D01*
X27343981Y-15600472D01*
X27319086Y-15604165D01*
X27293950Y-15605400D01*
X26781050Y-15605400D01*
X26755914Y-15604165D01*
X26731019Y-15600472D01*
X26706606Y-15594357D01*
X26682911Y-15585879D01*
X26660160Y-15575119D01*
X26638574Y-15562180D01*
X26618360Y-15547189D01*
X26599712Y-15530288D01*
X26582811Y-15511640D01*
X26567820Y-15491426D01*
X26554881Y-15469840D01*
X26544121Y-15447089D01*
X26535643Y-15423394D01*
X26529528Y-15398981D01*
X26525835Y-15374086D01*
X26524600Y-15348950D01*
X26524600Y-14411050D01*
X26525835Y-14385914D01*
X26529528Y-14361019D01*
X26535643Y-14336606D01*
X26544121Y-14312911D01*
X26554881Y-14290160D01*
X26567820Y-14268574D01*
X26582811Y-14248360D01*
X26599712Y-14229712D01*
X26618360Y-14212811D01*
X26638574Y-14197820D01*
X26660160Y-14184881D01*
X26682911Y-14174121D01*
X26706606Y-14165643D01*
X26731019Y-14159528D01*
X26755914Y-14155835D01*
X26781050Y-14154600D01*
X27293950Y-14154600D01*
X27319086Y-14155835D01*
X27319086Y-14155835D01*
G37*
D18*
X27037500Y-14880000D03*
D17*
G36*
X25444086Y-14155835D02*
X25468981Y-14159528D01*
X25493394Y-14165643D01*
X25517089Y-14174121D01*
X25539840Y-14184881D01*
X25561426Y-14197820D01*
X25581640Y-14212811D01*
X25600288Y-14229712D01*
X25617189Y-14248360D01*
X25632180Y-14268574D01*
X25645119Y-14290160D01*
X25655879Y-14312911D01*
X25664357Y-14336606D01*
X25670472Y-14361019D01*
X25674165Y-14385914D01*
X25675400Y-14411050D01*
X25675400Y-15348950D01*
X25674165Y-15374086D01*
X25670472Y-15398981D01*
X25664357Y-15423394D01*
X25655879Y-15447089D01*
X25645119Y-15469840D01*
X25632180Y-15491426D01*
X25617189Y-15511640D01*
X25600288Y-15530288D01*
X25581640Y-15547189D01*
X25561426Y-15562180D01*
X25539840Y-15575119D01*
X25517089Y-15585879D01*
X25493394Y-15594357D01*
X25468981Y-15600472D01*
X25444086Y-15604165D01*
X25418950Y-15605400D01*
X24906050Y-15605400D01*
X24880914Y-15604165D01*
X24856019Y-15600472D01*
X24831606Y-15594357D01*
X24807911Y-15585879D01*
X24785160Y-15575119D01*
X24763574Y-15562180D01*
X24743360Y-15547189D01*
X24724712Y-15530288D01*
X24707811Y-15511640D01*
X24692820Y-15491426D01*
X24679881Y-15469840D01*
X24669121Y-15447089D01*
X24660643Y-15423394D01*
X24654528Y-15398981D01*
X24650835Y-15374086D01*
X24649600Y-15348950D01*
X24649600Y-14411050D01*
X24650835Y-14385914D01*
X24654528Y-14361019D01*
X24660643Y-14336606D01*
X24669121Y-14312911D01*
X24679881Y-14290160D01*
X24692820Y-14268574D01*
X24707811Y-14248360D01*
X24724712Y-14229712D01*
X24743360Y-14212811D01*
X24763574Y-14197820D01*
X24785160Y-14184881D01*
X24807911Y-14174121D01*
X24831606Y-14165643D01*
X24856019Y-14159528D01*
X24880914Y-14155835D01*
X24906050Y-14154600D01*
X25418950Y-14154600D01*
X25444086Y-14155835D01*
X25444086Y-14155835D01*
G37*
D18*
X25162500Y-14880000D03*
G04 #@! TD*
D17*
G04 #@! TO.C,C2*
G36*
X30404086Y-17240835D02*
X30428981Y-17244528D01*
X30453394Y-17250643D01*
X30477089Y-17259121D01*
X30499840Y-17269881D01*
X30521426Y-17282820D01*
X30541640Y-17297811D01*
X30560288Y-17314712D01*
X30577189Y-17333360D01*
X30592180Y-17353574D01*
X30605119Y-17375160D01*
X30615879Y-17397911D01*
X30624357Y-17421606D01*
X30630472Y-17446019D01*
X30634165Y-17470914D01*
X30635400Y-17496050D01*
X30635400Y-18008950D01*
X30634165Y-18034086D01*
X30630472Y-18058981D01*
X30624357Y-18083394D01*
X30615879Y-18107089D01*
X30605119Y-18129840D01*
X30592180Y-18151426D01*
X30577189Y-18171640D01*
X30560288Y-18190288D01*
X30541640Y-18207189D01*
X30521426Y-18222180D01*
X30499840Y-18235119D01*
X30477089Y-18245879D01*
X30453394Y-18254357D01*
X30428981Y-18260472D01*
X30404086Y-18264165D01*
X30378950Y-18265400D01*
X29441050Y-18265400D01*
X29415914Y-18264165D01*
X29391019Y-18260472D01*
X29366606Y-18254357D01*
X29342911Y-18245879D01*
X29320160Y-18235119D01*
X29298574Y-18222180D01*
X29278360Y-18207189D01*
X29259712Y-18190288D01*
X29242811Y-18171640D01*
X29227820Y-18151426D01*
X29214881Y-18129840D01*
X29204121Y-18107089D01*
X29195643Y-18083394D01*
X29189528Y-18058981D01*
X29185835Y-18034086D01*
X29184600Y-18008950D01*
X29184600Y-17496050D01*
X29185835Y-17470914D01*
X29189528Y-17446019D01*
X29195643Y-17421606D01*
X29204121Y-17397911D01*
X29214881Y-17375160D01*
X29227820Y-17353574D01*
X29242811Y-17333360D01*
X29259712Y-17314712D01*
X29278360Y-17297811D01*
X29298574Y-17282820D01*
X29320160Y-17269881D01*
X29342911Y-17259121D01*
X29366606Y-17250643D01*
X29391019Y-17244528D01*
X29415914Y-17240835D01*
X29441050Y-17239600D01*
X30378950Y-17239600D01*
X30404086Y-17240835D01*
X30404086Y-17240835D01*
G37*
D18*
X29910000Y-17752500D03*
D17*
G36*
X30404086Y-19115835D02*
X30428981Y-19119528D01*
X30453394Y-19125643D01*
X30477089Y-19134121D01*
X30499840Y-19144881D01*
X30521426Y-19157820D01*
X30541640Y-19172811D01*
X30560288Y-19189712D01*
X30577189Y-19208360D01*
X30592180Y-19228574D01*
X30605119Y-19250160D01*
X30615879Y-19272911D01*
X30624357Y-19296606D01*
X30630472Y-19321019D01*
X30634165Y-19345914D01*
X30635400Y-19371050D01*
X30635400Y-19883950D01*
X30634165Y-19909086D01*
X30630472Y-19933981D01*
X30624357Y-19958394D01*
X30615879Y-19982089D01*
X30605119Y-20004840D01*
X30592180Y-20026426D01*
X30577189Y-20046640D01*
X30560288Y-20065288D01*
X30541640Y-20082189D01*
X30521426Y-20097180D01*
X30499840Y-20110119D01*
X30477089Y-20120879D01*
X30453394Y-20129357D01*
X30428981Y-20135472D01*
X30404086Y-20139165D01*
X30378950Y-20140400D01*
X29441050Y-20140400D01*
X29415914Y-20139165D01*
X29391019Y-20135472D01*
X29366606Y-20129357D01*
X29342911Y-20120879D01*
X29320160Y-20110119D01*
X29298574Y-20097180D01*
X29278360Y-20082189D01*
X29259712Y-20065288D01*
X29242811Y-20046640D01*
X29227820Y-20026426D01*
X29214881Y-20004840D01*
X29204121Y-19982089D01*
X29195643Y-19958394D01*
X29189528Y-19933981D01*
X29185835Y-19909086D01*
X29184600Y-19883950D01*
X29184600Y-19371050D01*
X29185835Y-19345914D01*
X29189528Y-19321019D01*
X29195643Y-19296606D01*
X29204121Y-19272911D01*
X29214881Y-19250160D01*
X29227820Y-19228574D01*
X29242811Y-19208360D01*
X29259712Y-19189712D01*
X29278360Y-19172811D01*
X29298574Y-19157820D01*
X29320160Y-19144881D01*
X29342911Y-19134121D01*
X29366606Y-19125643D01*
X29391019Y-19119528D01*
X29415914Y-19115835D01*
X29441050Y-19114600D01*
X30378950Y-19114600D01*
X30404086Y-19115835D01*
X30404086Y-19115835D01*
G37*
D18*
X29910000Y-19627500D03*
G04 #@! TD*
D17*
G04 #@! TO.C,C18*
G36*
X19699086Y-7805835D02*
X19723981Y-7809528D01*
X19748394Y-7815643D01*
X19772089Y-7824121D01*
X19794840Y-7834881D01*
X19816426Y-7847820D01*
X19836640Y-7862811D01*
X19855288Y-7879712D01*
X19872189Y-7898360D01*
X19887180Y-7918574D01*
X19900119Y-7940160D01*
X19910879Y-7962911D01*
X19919357Y-7986606D01*
X19925472Y-8011019D01*
X19929165Y-8035914D01*
X19930400Y-8061050D01*
X19930400Y-8998950D01*
X19929165Y-9024086D01*
X19925472Y-9048981D01*
X19919357Y-9073394D01*
X19910879Y-9097089D01*
X19900119Y-9119840D01*
X19887180Y-9141426D01*
X19872189Y-9161640D01*
X19855288Y-9180288D01*
X19836640Y-9197189D01*
X19816426Y-9212180D01*
X19794840Y-9225119D01*
X19772089Y-9235879D01*
X19748394Y-9244357D01*
X19723981Y-9250472D01*
X19699086Y-9254165D01*
X19673950Y-9255400D01*
X19161050Y-9255400D01*
X19135914Y-9254165D01*
X19111019Y-9250472D01*
X19086606Y-9244357D01*
X19062911Y-9235879D01*
X19040160Y-9225119D01*
X19018574Y-9212180D01*
X18998360Y-9197189D01*
X18979712Y-9180288D01*
X18962811Y-9161640D01*
X18947820Y-9141426D01*
X18934881Y-9119840D01*
X18924121Y-9097089D01*
X18915643Y-9073394D01*
X18909528Y-9048981D01*
X18905835Y-9024086D01*
X18904600Y-8998950D01*
X18904600Y-8061050D01*
X18905835Y-8035914D01*
X18909528Y-8011019D01*
X18915643Y-7986606D01*
X18924121Y-7962911D01*
X18934881Y-7940160D01*
X18947820Y-7918574D01*
X18962811Y-7898360D01*
X18979712Y-7879712D01*
X18998360Y-7862811D01*
X19018574Y-7847820D01*
X19040160Y-7834881D01*
X19062911Y-7824121D01*
X19086606Y-7815643D01*
X19111019Y-7809528D01*
X19135914Y-7805835D01*
X19161050Y-7804600D01*
X19673950Y-7804600D01*
X19699086Y-7805835D01*
X19699086Y-7805835D01*
G37*
D18*
X19417500Y-8530000D03*
D17*
G36*
X17824086Y-7805835D02*
X17848981Y-7809528D01*
X17873394Y-7815643D01*
X17897089Y-7824121D01*
X17919840Y-7834881D01*
X17941426Y-7847820D01*
X17961640Y-7862811D01*
X17980288Y-7879712D01*
X17997189Y-7898360D01*
X18012180Y-7918574D01*
X18025119Y-7940160D01*
X18035879Y-7962911D01*
X18044357Y-7986606D01*
X18050472Y-8011019D01*
X18054165Y-8035914D01*
X18055400Y-8061050D01*
X18055400Y-8998950D01*
X18054165Y-9024086D01*
X18050472Y-9048981D01*
X18044357Y-9073394D01*
X18035879Y-9097089D01*
X18025119Y-9119840D01*
X18012180Y-9141426D01*
X17997189Y-9161640D01*
X17980288Y-9180288D01*
X17961640Y-9197189D01*
X17941426Y-9212180D01*
X17919840Y-9225119D01*
X17897089Y-9235879D01*
X17873394Y-9244357D01*
X17848981Y-9250472D01*
X17824086Y-9254165D01*
X17798950Y-9255400D01*
X17286050Y-9255400D01*
X17260914Y-9254165D01*
X17236019Y-9250472D01*
X17211606Y-9244357D01*
X17187911Y-9235879D01*
X17165160Y-9225119D01*
X17143574Y-9212180D01*
X17123360Y-9197189D01*
X17104712Y-9180288D01*
X17087811Y-9161640D01*
X17072820Y-9141426D01*
X17059881Y-9119840D01*
X17049121Y-9097089D01*
X17040643Y-9073394D01*
X17034528Y-9048981D01*
X17030835Y-9024086D01*
X17029600Y-8998950D01*
X17029600Y-8061050D01*
X17030835Y-8035914D01*
X17034528Y-8011019D01*
X17040643Y-7986606D01*
X17049121Y-7962911D01*
X17059881Y-7940160D01*
X17072820Y-7918574D01*
X17087811Y-7898360D01*
X17104712Y-7879712D01*
X17123360Y-7862811D01*
X17143574Y-7847820D01*
X17165160Y-7834881D01*
X17187911Y-7824121D01*
X17211606Y-7815643D01*
X17236019Y-7809528D01*
X17260914Y-7805835D01*
X17286050Y-7804600D01*
X17798950Y-7804600D01*
X17824086Y-7805835D01*
X17824086Y-7805835D01*
G37*
D18*
X17542500Y-8530000D03*
G04 #@! TD*
D17*
G04 #@! TO.C,C19*
G36*
X10084086Y-17748835D02*
X10108981Y-17752528D01*
X10133394Y-17758643D01*
X10157089Y-17767121D01*
X10179840Y-17777881D01*
X10201426Y-17790820D01*
X10221640Y-17805811D01*
X10240288Y-17822712D01*
X10257189Y-17841360D01*
X10272180Y-17861574D01*
X10285119Y-17883160D01*
X10295879Y-17905911D01*
X10304357Y-17929606D01*
X10310472Y-17954019D01*
X10314165Y-17978914D01*
X10315400Y-18004050D01*
X10315400Y-18516950D01*
X10314165Y-18542086D01*
X10310472Y-18566981D01*
X10304357Y-18591394D01*
X10295879Y-18615089D01*
X10285119Y-18637840D01*
X10272180Y-18659426D01*
X10257189Y-18679640D01*
X10240288Y-18698288D01*
X10221640Y-18715189D01*
X10201426Y-18730180D01*
X10179840Y-18743119D01*
X10157089Y-18753879D01*
X10133394Y-18762357D01*
X10108981Y-18768472D01*
X10084086Y-18772165D01*
X10058950Y-18773400D01*
X9121050Y-18773400D01*
X9095914Y-18772165D01*
X9071019Y-18768472D01*
X9046606Y-18762357D01*
X9022911Y-18753879D01*
X9000160Y-18743119D01*
X8978574Y-18730180D01*
X8958360Y-18715189D01*
X8939712Y-18698288D01*
X8922811Y-18679640D01*
X8907820Y-18659426D01*
X8894881Y-18637840D01*
X8884121Y-18615089D01*
X8875643Y-18591394D01*
X8869528Y-18566981D01*
X8865835Y-18542086D01*
X8864600Y-18516950D01*
X8864600Y-18004050D01*
X8865835Y-17978914D01*
X8869528Y-17954019D01*
X8875643Y-17929606D01*
X8884121Y-17905911D01*
X8894881Y-17883160D01*
X8907820Y-17861574D01*
X8922811Y-17841360D01*
X8939712Y-17822712D01*
X8958360Y-17805811D01*
X8978574Y-17790820D01*
X9000160Y-17777881D01*
X9022911Y-17767121D01*
X9046606Y-17758643D01*
X9071019Y-17752528D01*
X9095914Y-17748835D01*
X9121050Y-17747600D01*
X10058950Y-17747600D01*
X10084086Y-17748835D01*
X10084086Y-17748835D01*
G37*
D18*
X9590000Y-18260500D03*
D17*
G36*
X10084086Y-19623835D02*
X10108981Y-19627528D01*
X10133394Y-19633643D01*
X10157089Y-19642121D01*
X10179840Y-19652881D01*
X10201426Y-19665820D01*
X10221640Y-19680811D01*
X10240288Y-19697712D01*
X10257189Y-19716360D01*
X10272180Y-19736574D01*
X10285119Y-19758160D01*
X10295879Y-19780911D01*
X10304357Y-19804606D01*
X10310472Y-19829019D01*
X10314165Y-19853914D01*
X10315400Y-19879050D01*
X10315400Y-20391950D01*
X10314165Y-20417086D01*
X10310472Y-20441981D01*
X10304357Y-20466394D01*
X10295879Y-20490089D01*
X10285119Y-20512840D01*
X10272180Y-20534426D01*
X10257189Y-20554640D01*
X10240288Y-20573288D01*
X10221640Y-20590189D01*
X10201426Y-20605180D01*
X10179840Y-20618119D01*
X10157089Y-20628879D01*
X10133394Y-20637357D01*
X10108981Y-20643472D01*
X10084086Y-20647165D01*
X10058950Y-20648400D01*
X9121050Y-20648400D01*
X9095914Y-20647165D01*
X9071019Y-20643472D01*
X9046606Y-20637357D01*
X9022911Y-20628879D01*
X9000160Y-20618119D01*
X8978574Y-20605180D01*
X8958360Y-20590189D01*
X8939712Y-20573288D01*
X8922811Y-20554640D01*
X8907820Y-20534426D01*
X8894881Y-20512840D01*
X8884121Y-20490089D01*
X8875643Y-20466394D01*
X8869528Y-20441981D01*
X8865835Y-20417086D01*
X8864600Y-20391950D01*
X8864600Y-19879050D01*
X8865835Y-19853914D01*
X8869528Y-19829019D01*
X8875643Y-19804606D01*
X8884121Y-19780911D01*
X8894881Y-19758160D01*
X8907820Y-19736574D01*
X8922811Y-19716360D01*
X8939712Y-19697712D01*
X8958360Y-19680811D01*
X8978574Y-19665820D01*
X9000160Y-19652881D01*
X9022911Y-19642121D01*
X9046606Y-19633643D01*
X9071019Y-19627528D01*
X9095914Y-19623835D01*
X9121050Y-19622600D01*
X10058950Y-19622600D01*
X10084086Y-19623835D01*
X10084086Y-19623835D01*
G37*
D18*
X9590000Y-20135500D03*
G04 #@! TD*
D17*
G04 #@! TO.C,C20*
G36*
X8052086Y-19623835D02*
X8076981Y-19627528D01*
X8101394Y-19633643D01*
X8125089Y-19642121D01*
X8147840Y-19652881D01*
X8169426Y-19665820D01*
X8189640Y-19680811D01*
X8208288Y-19697712D01*
X8225189Y-19716360D01*
X8240180Y-19736574D01*
X8253119Y-19758160D01*
X8263879Y-19780911D01*
X8272357Y-19804606D01*
X8278472Y-19829019D01*
X8282165Y-19853914D01*
X8283400Y-19879050D01*
X8283400Y-20391950D01*
X8282165Y-20417086D01*
X8278472Y-20441981D01*
X8272357Y-20466394D01*
X8263879Y-20490089D01*
X8253119Y-20512840D01*
X8240180Y-20534426D01*
X8225189Y-20554640D01*
X8208288Y-20573288D01*
X8189640Y-20590189D01*
X8169426Y-20605180D01*
X8147840Y-20618119D01*
X8125089Y-20628879D01*
X8101394Y-20637357D01*
X8076981Y-20643472D01*
X8052086Y-20647165D01*
X8026950Y-20648400D01*
X7089050Y-20648400D01*
X7063914Y-20647165D01*
X7039019Y-20643472D01*
X7014606Y-20637357D01*
X6990911Y-20628879D01*
X6968160Y-20618119D01*
X6946574Y-20605180D01*
X6926360Y-20590189D01*
X6907712Y-20573288D01*
X6890811Y-20554640D01*
X6875820Y-20534426D01*
X6862881Y-20512840D01*
X6852121Y-20490089D01*
X6843643Y-20466394D01*
X6837528Y-20441981D01*
X6833835Y-20417086D01*
X6832600Y-20391950D01*
X6832600Y-19879050D01*
X6833835Y-19853914D01*
X6837528Y-19829019D01*
X6843643Y-19804606D01*
X6852121Y-19780911D01*
X6862881Y-19758160D01*
X6875820Y-19736574D01*
X6890811Y-19716360D01*
X6907712Y-19697712D01*
X6926360Y-19680811D01*
X6946574Y-19665820D01*
X6968160Y-19652881D01*
X6990911Y-19642121D01*
X7014606Y-19633643D01*
X7039019Y-19627528D01*
X7063914Y-19623835D01*
X7089050Y-19622600D01*
X8026950Y-19622600D01*
X8052086Y-19623835D01*
X8052086Y-19623835D01*
G37*
D18*
X7558000Y-20135500D03*
D17*
G36*
X8052086Y-17748835D02*
X8076981Y-17752528D01*
X8101394Y-17758643D01*
X8125089Y-17767121D01*
X8147840Y-17777881D01*
X8169426Y-17790820D01*
X8189640Y-17805811D01*
X8208288Y-17822712D01*
X8225189Y-17841360D01*
X8240180Y-17861574D01*
X8253119Y-17883160D01*
X8263879Y-17905911D01*
X8272357Y-17929606D01*
X8278472Y-17954019D01*
X8282165Y-17978914D01*
X8283400Y-18004050D01*
X8283400Y-18516950D01*
X8282165Y-18542086D01*
X8278472Y-18566981D01*
X8272357Y-18591394D01*
X8263879Y-18615089D01*
X8253119Y-18637840D01*
X8240180Y-18659426D01*
X8225189Y-18679640D01*
X8208288Y-18698288D01*
X8189640Y-18715189D01*
X8169426Y-18730180D01*
X8147840Y-18743119D01*
X8125089Y-18753879D01*
X8101394Y-18762357D01*
X8076981Y-18768472D01*
X8052086Y-18772165D01*
X8026950Y-18773400D01*
X7089050Y-18773400D01*
X7063914Y-18772165D01*
X7039019Y-18768472D01*
X7014606Y-18762357D01*
X6990911Y-18753879D01*
X6968160Y-18743119D01*
X6946574Y-18730180D01*
X6926360Y-18715189D01*
X6907712Y-18698288D01*
X6890811Y-18679640D01*
X6875820Y-18659426D01*
X6862881Y-18637840D01*
X6852121Y-18615089D01*
X6843643Y-18591394D01*
X6837528Y-18566981D01*
X6833835Y-18542086D01*
X6832600Y-18516950D01*
X6832600Y-18004050D01*
X6833835Y-17978914D01*
X6837528Y-17954019D01*
X6843643Y-17929606D01*
X6852121Y-17905911D01*
X6862881Y-17883160D01*
X6875820Y-17861574D01*
X6890811Y-17841360D01*
X6907712Y-17822712D01*
X6926360Y-17805811D01*
X6946574Y-17790820D01*
X6968160Y-17777881D01*
X6990911Y-17767121D01*
X7014606Y-17758643D01*
X7039019Y-17752528D01*
X7063914Y-17748835D01*
X7089050Y-17747600D01*
X8026950Y-17747600D01*
X8052086Y-17748835D01*
X8052086Y-17748835D01*
G37*
D18*
X7558000Y-18260500D03*
G04 #@! TD*
D17*
G04 #@! TO.C,C21*
G36*
X13894086Y-19780835D02*
X13918981Y-19784528D01*
X13943394Y-19790643D01*
X13967089Y-19799121D01*
X13989840Y-19809881D01*
X14011426Y-19822820D01*
X14031640Y-19837811D01*
X14050288Y-19854712D01*
X14067189Y-19873360D01*
X14082180Y-19893574D01*
X14095119Y-19915160D01*
X14105879Y-19937911D01*
X14114357Y-19961606D01*
X14120472Y-19986019D01*
X14124165Y-20010914D01*
X14125400Y-20036050D01*
X14125400Y-20548950D01*
X14124165Y-20574086D01*
X14120472Y-20598981D01*
X14114357Y-20623394D01*
X14105879Y-20647089D01*
X14095119Y-20669840D01*
X14082180Y-20691426D01*
X14067189Y-20711640D01*
X14050288Y-20730288D01*
X14031640Y-20747189D01*
X14011426Y-20762180D01*
X13989840Y-20775119D01*
X13967089Y-20785879D01*
X13943394Y-20794357D01*
X13918981Y-20800472D01*
X13894086Y-20804165D01*
X13868950Y-20805400D01*
X12931050Y-20805400D01*
X12905914Y-20804165D01*
X12881019Y-20800472D01*
X12856606Y-20794357D01*
X12832911Y-20785879D01*
X12810160Y-20775119D01*
X12788574Y-20762180D01*
X12768360Y-20747189D01*
X12749712Y-20730288D01*
X12732811Y-20711640D01*
X12717820Y-20691426D01*
X12704881Y-20669840D01*
X12694121Y-20647089D01*
X12685643Y-20623394D01*
X12679528Y-20598981D01*
X12675835Y-20574086D01*
X12674600Y-20548950D01*
X12674600Y-20036050D01*
X12675835Y-20010914D01*
X12679528Y-19986019D01*
X12685643Y-19961606D01*
X12694121Y-19937911D01*
X12704881Y-19915160D01*
X12717820Y-19893574D01*
X12732811Y-19873360D01*
X12749712Y-19854712D01*
X12768360Y-19837811D01*
X12788574Y-19822820D01*
X12810160Y-19809881D01*
X12832911Y-19799121D01*
X12856606Y-19790643D01*
X12881019Y-19784528D01*
X12905914Y-19780835D01*
X12931050Y-19779600D01*
X13868950Y-19779600D01*
X13894086Y-19780835D01*
X13894086Y-19780835D01*
G37*
D18*
X13400000Y-20292500D03*
D17*
G36*
X13894086Y-21655835D02*
X13918981Y-21659528D01*
X13943394Y-21665643D01*
X13967089Y-21674121D01*
X13989840Y-21684881D01*
X14011426Y-21697820D01*
X14031640Y-21712811D01*
X14050288Y-21729712D01*
X14067189Y-21748360D01*
X14082180Y-21768574D01*
X14095119Y-21790160D01*
X14105879Y-21812911D01*
X14114357Y-21836606D01*
X14120472Y-21861019D01*
X14124165Y-21885914D01*
X14125400Y-21911050D01*
X14125400Y-22423950D01*
X14124165Y-22449086D01*
X14120472Y-22473981D01*
X14114357Y-22498394D01*
X14105879Y-22522089D01*
X14095119Y-22544840D01*
X14082180Y-22566426D01*
X14067189Y-22586640D01*
X14050288Y-22605288D01*
X14031640Y-22622189D01*
X14011426Y-22637180D01*
X13989840Y-22650119D01*
X13967089Y-22660879D01*
X13943394Y-22669357D01*
X13918981Y-22675472D01*
X13894086Y-22679165D01*
X13868950Y-22680400D01*
X12931050Y-22680400D01*
X12905914Y-22679165D01*
X12881019Y-22675472D01*
X12856606Y-22669357D01*
X12832911Y-22660879D01*
X12810160Y-22650119D01*
X12788574Y-22637180D01*
X12768360Y-22622189D01*
X12749712Y-22605288D01*
X12732811Y-22586640D01*
X12717820Y-22566426D01*
X12704881Y-22544840D01*
X12694121Y-22522089D01*
X12685643Y-22498394D01*
X12679528Y-22473981D01*
X12675835Y-22449086D01*
X12674600Y-22423950D01*
X12674600Y-21911050D01*
X12675835Y-21885914D01*
X12679528Y-21861019D01*
X12685643Y-21836606D01*
X12694121Y-21812911D01*
X12704881Y-21790160D01*
X12717820Y-21768574D01*
X12732811Y-21748360D01*
X12749712Y-21729712D01*
X12768360Y-21712811D01*
X12788574Y-21697820D01*
X12810160Y-21684881D01*
X12832911Y-21674121D01*
X12856606Y-21665643D01*
X12881019Y-21659528D01*
X12905914Y-21655835D01*
X12931050Y-21654600D01*
X13868950Y-21654600D01*
X13894086Y-21655835D01*
X13894086Y-21655835D01*
G37*
D18*
X13400000Y-22167500D03*
G04 #@! TD*
D17*
G04 #@! TO.C,C6*
G36*
X32944086Y-28005835D02*
X32968981Y-28009528D01*
X32993394Y-28015643D01*
X33017089Y-28024121D01*
X33039840Y-28034881D01*
X33061426Y-28047820D01*
X33081640Y-28062811D01*
X33100288Y-28079712D01*
X33117189Y-28098360D01*
X33132180Y-28118574D01*
X33145119Y-28140160D01*
X33155879Y-28162911D01*
X33164357Y-28186606D01*
X33170472Y-28211019D01*
X33174165Y-28235914D01*
X33175400Y-28261050D01*
X33175400Y-28773950D01*
X33174165Y-28799086D01*
X33170472Y-28823981D01*
X33164357Y-28848394D01*
X33155879Y-28872089D01*
X33145119Y-28894840D01*
X33132180Y-28916426D01*
X33117189Y-28936640D01*
X33100288Y-28955288D01*
X33081640Y-28972189D01*
X33061426Y-28987180D01*
X33039840Y-29000119D01*
X33017089Y-29010879D01*
X32993394Y-29019357D01*
X32968981Y-29025472D01*
X32944086Y-29029165D01*
X32918950Y-29030400D01*
X31981050Y-29030400D01*
X31955914Y-29029165D01*
X31931019Y-29025472D01*
X31906606Y-29019357D01*
X31882911Y-29010879D01*
X31860160Y-29000119D01*
X31838574Y-28987180D01*
X31818360Y-28972189D01*
X31799712Y-28955288D01*
X31782811Y-28936640D01*
X31767820Y-28916426D01*
X31754881Y-28894840D01*
X31744121Y-28872089D01*
X31735643Y-28848394D01*
X31729528Y-28823981D01*
X31725835Y-28799086D01*
X31724600Y-28773950D01*
X31724600Y-28261050D01*
X31725835Y-28235914D01*
X31729528Y-28211019D01*
X31735643Y-28186606D01*
X31744121Y-28162911D01*
X31754881Y-28140160D01*
X31767820Y-28118574D01*
X31782811Y-28098360D01*
X31799712Y-28079712D01*
X31818360Y-28062811D01*
X31838574Y-28047820D01*
X31860160Y-28034881D01*
X31882911Y-28024121D01*
X31906606Y-28015643D01*
X31931019Y-28009528D01*
X31955914Y-28005835D01*
X31981050Y-28004600D01*
X32918950Y-28004600D01*
X32944086Y-28005835D01*
X32944086Y-28005835D01*
G37*
D18*
X32450000Y-28517500D03*
D17*
G36*
X32944086Y-26130835D02*
X32968981Y-26134528D01*
X32993394Y-26140643D01*
X33017089Y-26149121D01*
X33039840Y-26159881D01*
X33061426Y-26172820D01*
X33081640Y-26187811D01*
X33100288Y-26204712D01*
X33117189Y-26223360D01*
X33132180Y-26243574D01*
X33145119Y-26265160D01*
X33155879Y-26287911D01*
X33164357Y-26311606D01*
X33170472Y-26336019D01*
X33174165Y-26360914D01*
X33175400Y-26386050D01*
X33175400Y-26898950D01*
X33174165Y-26924086D01*
X33170472Y-26948981D01*
X33164357Y-26973394D01*
X33155879Y-26997089D01*
X33145119Y-27019840D01*
X33132180Y-27041426D01*
X33117189Y-27061640D01*
X33100288Y-27080288D01*
X33081640Y-27097189D01*
X33061426Y-27112180D01*
X33039840Y-27125119D01*
X33017089Y-27135879D01*
X32993394Y-27144357D01*
X32968981Y-27150472D01*
X32944086Y-27154165D01*
X32918950Y-27155400D01*
X31981050Y-27155400D01*
X31955914Y-27154165D01*
X31931019Y-27150472D01*
X31906606Y-27144357D01*
X31882911Y-27135879D01*
X31860160Y-27125119D01*
X31838574Y-27112180D01*
X31818360Y-27097189D01*
X31799712Y-27080288D01*
X31782811Y-27061640D01*
X31767820Y-27041426D01*
X31754881Y-27019840D01*
X31744121Y-26997089D01*
X31735643Y-26973394D01*
X31729528Y-26948981D01*
X31725835Y-26924086D01*
X31724600Y-26898950D01*
X31724600Y-26386050D01*
X31725835Y-26360914D01*
X31729528Y-26336019D01*
X31735643Y-26311606D01*
X31744121Y-26287911D01*
X31754881Y-26265160D01*
X31767820Y-26243574D01*
X31782811Y-26223360D01*
X31799712Y-26204712D01*
X31818360Y-26187811D01*
X31838574Y-26172820D01*
X31860160Y-26159881D01*
X31882911Y-26149121D01*
X31906606Y-26140643D01*
X31931019Y-26134528D01*
X31955914Y-26130835D01*
X31981050Y-26129600D01*
X32918950Y-26129600D01*
X32944086Y-26130835D01*
X32944086Y-26130835D01*
G37*
D18*
X32450000Y-26642500D03*
G04 #@! TD*
D17*
G04 #@! TO.C,C5*
G36*
X32944086Y-17240835D02*
X32968981Y-17244528D01*
X32993394Y-17250643D01*
X33017089Y-17259121D01*
X33039840Y-17269881D01*
X33061426Y-17282820D01*
X33081640Y-17297811D01*
X33100288Y-17314712D01*
X33117189Y-17333360D01*
X33132180Y-17353574D01*
X33145119Y-17375160D01*
X33155879Y-17397911D01*
X33164357Y-17421606D01*
X33170472Y-17446019D01*
X33174165Y-17470914D01*
X33175400Y-17496050D01*
X33175400Y-18008950D01*
X33174165Y-18034086D01*
X33170472Y-18058981D01*
X33164357Y-18083394D01*
X33155879Y-18107089D01*
X33145119Y-18129840D01*
X33132180Y-18151426D01*
X33117189Y-18171640D01*
X33100288Y-18190288D01*
X33081640Y-18207189D01*
X33061426Y-18222180D01*
X33039840Y-18235119D01*
X33017089Y-18245879D01*
X32993394Y-18254357D01*
X32968981Y-18260472D01*
X32944086Y-18264165D01*
X32918950Y-18265400D01*
X31981050Y-18265400D01*
X31955914Y-18264165D01*
X31931019Y-18260472D01*
X31906606Y-18254357D01*
X31882911Y-18245879D01*
X31860160Y-18235119D01*
X31838574Y-18222180D01*
X31818360Y-18207189D01*
X31799712Y-18190288D01*
X31782811Y-18171640D01*
X31767820Y-18151426D01*
X31754881Y-18129840D01*
X31744121Y-18107089D01*
X31735643Y-18083394D01*
X31729528Y-18058981D01*
X31725835Y-18034086D01*
X31724600Y-18008950D01*
X31724600Y-17496050D01*
X31725835Y-17470914D01*
X31729528Y-17446019D01*
X31735643Y-17421606D01*
X31744121Y-17397911D01*
X31754881Y-17375160D01*
X31767820Y-17353574D01*
X31782811Y-17333360D01*
X31799712Y-17314712D01*
X31818360Y-17297811D01*
X31838574Y-17282820D01*
X31860160Y-17269881D01*
X31882911Y-17259121D01*
X31906606Y-17250643D01*
X31931019Y-17244528D01*
X31955914Y-17240835D01*
X31981050Y-17239600D01*
X32918950Y-17239600D01*
X32944086Y-17240835D01*
X32944086Y-17240835D01*
G37*
D18*
X32450000Y-17752500D03*
D17*
G36*
X32944086Y-19115835D02*
X32968981Y-19119528D01*
X32993394Y-19125643D01*
X33017089Y-19134121D01*
X33039840Y-19144881D01*
X33061426Y-19157820D01*
X33081640Y-19172811D01*
X33100288Y-19189712D01*
X33117189Y-19208360D01*
X33132180Y-19228574D01*
X33145119Y-19250160D01*
X33155879Y-19272911D01*
X33164357Y-19296606D01*
X33170472Y-19321019D01*
X33174165Y-19345914D01*
X33175400Y-19371050D01*
X33175400Y-19883950D01*
X33174165Y-19909086D01*
X33170472Y-19933981D01*
X33164357Y-19958394D01*
X33155879Y-19982089D01*
X33145119Y-20004840D01*
X33132180Y-20026426D01*
X33117189Y-20046640D01*
X33100288Y-20065288D01*
X33081640Y-20082189D01*
X33061426Y-20097180D01*
X33039840Y-20110119D01*
X33017089Y-20120879D01*
X32993394Y-20129357D01*
X32968981Y-20135472D01*
X32944086Y-20139165D01*
X32918950Y-20140400D01*
X31981050Y-20140400D01*
X31955914Y-20139165D01*
X31931019Y-20135472D01*
X31906606Y-20129357D01*
X31882911Y-20120879D01*
X31860160Y-20110119D01*
X31838574Y-20097180D01*
X31818360Y-20082189D01*
X31799712Y-20065288D01*
X31782811Y-20046640D01*
X31767820Y-20026426D01*
X31754881Y-20004840D01*
X31744121Y-19982089D01*
X31735643Y-19958394D01*
X31729528Y-19933981D01*
X31725835Y-19909086D01*
X31724600Y-19883950D01*
X31724600Y-19371050D01*
X31725835Y-19345914D01*
X31729528Y-19321019D01*
X31735643Y-19296606D01*
X31744121Y-19272911D01*
X31754881Y-19250160D01*
X31767820Y-19228574D01*
X31782811Y-19208360D01*
X31799712Y-19189712D01*
X31818360Y-19172811D01*
X31838574Y-19157820D01*
X31860160Y-19144881D01*
X31882911Y-19134121D01*
X31906606Y-19125643D01*
X31931019Y-19119528D01*
X31955914Y-19115835D01*
X31981050Y-19114600D01*
X32918950Y-19114600D01*
X32944086Y-19115835D01*
X32944086Y-19115835D01*
G37*
D18*
X32450000Y-19627500D03*
G04 #@! TD*
D17*
G04 #@! TO.C,C4*
G36*
X32944086Y-10225835D02*
X32968981Y-10229528D01*
X32993394Y-10235643D01*
X33017089Y-10244121D01*
X33039840Y-10254881D01*
X33061426Y-10267820D01*
X33081640Y-10282811D01*
X33100288Y-10299712D01*
X33117189Y-10318360D01*
X33132180Y-10338574D01*
X33145119Y-10360160D01*
X33155879Y-10382911D01*
X33164357Y-10406606D01*
X33170472Y-10431019D01*
X33174165Y-10455914D01*
X33175400Y-10481050D01*
X33175400Y-10993950D01*
X33174165Y-11019086D01*
X33170472Y-11043981D01*
X33164357Y-11068394D01*
X33155879Y-11092089D01*
X33145119Y-11114840D01*
X33132180Y-11136426D01*
X33117189Y-11156640D01*
X33100288Y-11175288D01*
X33081640Y-11192189D01*
X33061426Y-11207180D01*
X33039840Y-11220119D01*
X33017089Y-11230879D01*
X32993394Y-11239357D01*
X32968981Y-11245472D01*
X32944086Y-11249165D01*
X32918950Y-11250400D01*
X31981050Y-11250400D01*
X31955914Y-11249165D01*
X31931019Y-11245472D01*
X31906606Y-11239357D01*
X31882911Y-11230879D01*
X31860160Y-11220119D01*
X31838574Y-11207180D01*
X31818360Y-11192189D01*
X31799712Y-11175288D01*
X31782811Y-11156640D01*
X31767820Y-11136426D01*
X31754881Y-11114840D01*
X31744121Y-11092089D01*
X31735643Y-11068394D01*
X31729528Y-11043981D01*
X31725835Y-11019086D01*
X31724600Y-10993950D01*
X31724600Y-10481050D01*
X31725835Y-10455914D01*
X31729528Y-10431019D01*
X31735643Y-10406606D01*
X31744121Y-10382911D01*
X31754881Y-10360160D01*
X31767820Y-10338574D01*
X31782811Y-10318360D01*
X31799712Y-10299712D01*
X31818360Y-10282811D01*
X31838574Y-10267820D01*
X31860160Y-10254881D01*
X31882911Y-10244121D01*
X31906606Y-10235643D01*
X31931019Y-10229528D01*
X31955914Y-10225835D01*
X31981050Y-10224600D01*
X32918950Y-10224600D01*
X32944086Y-10225835D01*
X32944086Y-10225835D01*
G37*
D18*
X32450000Y-10737500D03*
D17*
G36*
X32944086Y-8350835D02*
X32968981Y-8354528D01*
X32993394Y-8360643D01*
X33017089Y-8369121D01*
X33039840Y-8379881D01*
X33061426Y-8392820D01*
X33081640Y-8407811D01*
X33100288Y-8424712D01*
X33117189Y-8443360D01*
X33132180Y-8463574D01*
X33145119Y-8485160D01*
X33155879Y-8507911D01*
X33164357Y-8531606D01*
X33170472Y-8556019D01*
X33174165Y-8580914D01*
X33175400Y-8606050D01*
X33175400Y-9118950D01*
X33174165Y-9144086D01*
X33170472Y-9168981D01*
X33164357Y-9193394D01*
X33155879Y-9217089D01*
X33145119Y-9239840D01*
X33132180Y-9261426D01*
X33117189Y-9281640D01*
X33100288Y-9300288D01*
X33081640Y-9317189D01*
X33061426Y-9332180D01*
X33039840Y-9345119D01*
X33017089Y-9355879D01*
X32993394Y-9364357D01*
X32968981Y-9370472D01*
X32944086Y-9374165D01*
X32918950Y-9375400D01*
X31981050Y-9375400D01*
X31955914Y-9374165D01*
X31931019Y-9370472D01*
X31906606Y-9364357D01*
X31882911Y-9355879D01*
X31860160Y-9345119D01*
X31838574Y-9332180D01*
X31818360Y-9317189D01*
X31799712Y-9300288D01*
X31782811Y-9281640D01*
X31767820Y-9261426D01*
X31754881Y-9239840D01*
X31744121Y-9217089D01*
X31735643Y-9193394D01*
X31729528Y-9168981D01*
X31725835Y-9144086D01*
X31724600Y-9118950D01*
X31724600Y-8606050D01*
X31725835Y-8580914D01*
X31729528Y-8556019D01*
X31735643Y-8531606D01*
X31744121Y-8507911D01*
X31754881Y-8485160D01*
X31767820Y-8463574D01*
X31782811Y-8443360D01*
X31799712Y-8424712D01*
X31818360Y-8407811D01*
X31838574Y-8392820D01*
X31860160Y-8379881D01*
X31882911Y-8369121D01*
X31906606Y-8360643D01*
X31931019Y-8354528D01*
X31955914Y-8350835D01*
X31981050Y-8349600D01*
X32918950Y-8349600D01*
X32944086Y-8350835D01*
X32944086Y-8350835D01*
G37*
D18*
X32450000Y-8862500D03*
G04 #@! TD*
D17*
G04 #@! TO.C,C1*
G36*
X30404086Y-8350835D02*
X30428981Y-8354528D01*
X30453394Y-8360643D01*
X30477089Y-8369121D01*
X30499840Y-8379881D01*
X30521426Y-8392820D01*
X30541640Y-8407811D01*
X30560288Y-8424712D01*
X30577189Y-8443360D01*
X30592180Y-8463574D01*
X30605119Y-8485160D01*
X30615879Y-8507911D01*
X30624357Y-8531606D01*
X30630472Y-8556019D01*
X30634165Y-8580914D01*
X30635400Y-8606050D01*
X30635400Y-9118950D01*
X30634165Y-9144086D01*
X30630472Y-9168981D01*
X30624357Y-9193394D01*
X30615879Y-9217089D01*
X30605119Y-9239840D01*
X30592180Y-9261426D01*
X30577189Y-9281640D01*
X30560288Y-9300288D01*
X30541640Y-9317189D01*
X30521426Y-9332180D01*
X30499840Y-9345119D01*
X30477089Y-9355879D01*
X30453394Y-9364357D01*
X30428981Y-9370472D01*
X30404086Y-9374165D01*
X30378950Y-9375400D01*
X29441050Y-9375400D01*
X29415914Y-9374165D01*
X29391019Y-9370472D01*
X29366606Y-9364357D01*
X29342911Y-9355879D01*
X29320160Y-9345119D01*
X29298574Y-9332180D01*
X29278360Y-9317189D01*
X29259712Y-9300288D01*
X29242811Y-9281640D01*
X29227820Y-9261426D01*
X29214881Y-9239840D01*
X29204121Y-9217089D01*
X29195643Y-9193394D01*
X29189528Y-9168981D01*
X29185835Y-9144086D01*
X29184600Y-9118950D01*
X29184600Y-8606050D01*
X29185835Y-8580914D01*
X29189528Y-8556019D01*
X29195643Y-8531606D01*
X29204121Y-8507911D01*
X29214881Y-8485160D01*
X29227820Y-8463574D01*
X29242811Y-8443360D01*
X29259712Y-8424712D01*
X29278360Y-8407811D01*
X29298574Y-8392820D01*
X29320160Y-8379881D01*
X29342911Y-8369121D01*
X29366606Y-8360643D01*
X29391019Y-8354528D01*
X29415914Y-8350835D01*
X29441050Y-8349600D01*
X30378950Y-8349600D01*
X30404086Y-8350835D01*
X30404086Y-8350835D01*
G37*
D18*
X29910000Y-8862500D03*
D17*
G36*
X30404086Y-10225835D02*
X30428981Y-10229528D01*
X30453394Y-10235643D01*
X30477089Y-10244121D01*
X30499840Y-10254881D01*
X30521426Y-10267820D01*
X30541640Y-10282811D01*
X30560288Y-10299712D01*
X30577189Y-10318360D01*
X30592180Y-10338574D01*
X30605119Y-10360160D01*
X30615879Y-10382911D01*
X30624357Y-10406606D01*
X30630472Y-10431019D01*
X30634165Y-10455914D01*
X30635400Y-10481050D01*
X30635400Y-10993950D01*
X30634165Y-11019086D01*
X30630472Y-11043981D01*
X30624357Y-11068394D01*
X30615879Y-11092089D01*
X30605119Y-11114840D01*
X30592180Y-11136426D01*
X30577189Y-11156640D01*
X30560288Y-11175288D01*
X30541640Y-11192189D01*
X30521426Y-11207180D01*
X30499840Y-11220119D01*
X30477089Y-11230879D01*
X30453394Y-11239357D01*
X30428981Y-11245472D01*
X30404086Y-11249165D01*
X30378950Y-11250400D01*
X29441050Y-11250400D01*
X29415914Y-11249165D01*
X29391019Y-11245472D01*
X29366606Y-11239357D01*
X29342911Y-11230879D01*
X29320160Y-11220119D01*
X29298574Y-11207180D01*
X29278360Y-11192189D01*
X29259712Y-11175288D01*
X29242811Y-11156640D01*
X29227820Y-11136426D01*
X29214881Y-11114840D01*
X29204121Y-11092089D01*
X29195643Y-11068394D01*
X29189528Y-11043981D01*
X29185835Y-11019086D01*
X29184600Y-10993950D01*
X29184600Y-10481050D01*
X29185835Y-10455914D01*
X29189528Y-10431019D01*
X29195643Y-10406606D01*
X29204121Y-10382911D01*
X29214881Y-10360160D01*
X29227820Y-10338574D01*
X29242811Y-10318360D01*
X29259712Y-10299712D01*
X29278360Y-10282811D01*
X29298574Y-10267820D01*
X29320160Y-10254881D01*
X29342911Y-10244121D01*
X29366606Y-10235643D01*
X29391019Y-10229528D01*
X29415914Y-10225835D01*
X29441050Y-10224600D01*
X30378950Y-10224600D01*
X30404086Y-10225835D01*
X30404086Y-10225835D01*
G37*
D18*
X29910000Y-10737500D03*
G04 #@! TD*
D17*
G04 #@! TO.C,C17*
G36*
X15889086Y-16949835D02*
X15913981Y-16953528D01*
X15938394Y-16959643D01*
X15962089Y-16968121D01*
X15984840Y-16978881D01*
X16006426Y-16991820D01*
X16026640Y-17006811D01*
X16045288Y-17023712D01*
X16062189Y-17042360D01*
X16077180Y-17062574D01*
X16090119Y-17084160D01*
X16100879Y-17106911D01*
X16109357Y-17130606D01*
X16115472Y-17155019D01*
X16119165Y-17179914D01*
X16120400Y-17205050D01*
X16120400Y-18142950D01*
X16119165Y-18168086D01*
X16115472Y-18192981D01*
X16109357Y-18217394D01*
X16100879Y-18241089D01*
X16090119Y-18263840D01*
X16077180Y-18285426D01*
X16062189Y-18305640D01*
X16045288Y-18324288D01*
X16026640Y-18341189D01*
X16006426Y-18356180D01*
X15984840Y-18369119D01*
X15962089Y-18379879D01*
X15938394Y-18388357D01*
X15913981Y-18394472D01*
X15889086Y-18398165D01*
X15863950Y-18399400D01*
X15351050Y-18399400D01*
X15325914Y-18398165D01*
X15301019Y-18394472D01*
X15276606Y-18388357D01*
X15252911Y-18379879D01*
X15230160Y-18369119D01*
X15208574Y-18356180D01*
X15188360Y-18341189D01*
X15169712Y-18324288D01*
X15152811Y-18305640D01*
X15137820Y-18285426D01*
X15124881Y-18263840D01*
X15114121Y-18241089D01*
X15105643Y-18217394D01*
X15099528Y-18192981D01*
X15095835Y-18168086D01*
X15094600Y-18142950D01*
X15094600Y-17205050D01*
X15095835Y-17179914D01*
X15099528Y-17155019D01*
X15105643Y-17130606D01*
X15114121Y-17106911D01*
X15124881Y-17084160D01*
X15137820Y-17062574D01*
X15152811Y-17042360D01*
X15169712Y-17023712D01*
X15188360Y-17006811D01*
X15208574Y-16991820D01*
X15230160Y-16978881D01*
X15252911Y-16968121D01*
X15276606Y-16959643D01*
X15301019Y-16953528D01*
X15325914Y-16949835D01*
X15351050Y-16948600D01*
X15863950Y-16948600D01*
X15889086Y-16949835D01*
X15889086Y-16949835D01*
G37*
D18*
X15607500Y-17674000D03*
D17*
G36*
X14014086Y-16949835D02*
X14038981Y-16953528D01*
X14063394Y-16959643D01*
X14087089Y-16968121D01*
X14109840Y-16978881D01*
X14131426Y-16991820D01*
X14151640Y-17006811D01*
X14170288Y-17023712D01*
X14187189Y-17042360D01*
X14202180Y-17062574D01*
X14215119Y-17084160D01*
X14225879Y-17106911D01*
X14234357Y-17130606D01*
X14240472Y-17155019D01*
X14244165Y-17179914D01*
X14245400Y-17205050D01*
X14245400Y-18142950D01*
X14244165Y-18168086D01*
X14240472Y-18192981D01*
X14234357Y-18217394D01*
X14225879Y-18241089D01*
X14215119Y-18263840D01*
X14202180Y-18285426D01*
X14187189Y-18305640D01*
X14170288Y-18324288D01*
X14151640Y-18341189D01*
X14131426Y-18356180D01*
X14109840Y-18369119D01*
X14087089Y-18379879D01*
X14063394Y-18388357D01*
X14038981Y-18394472D01*
X14014086Y-18398165D01*
X13988950Y-18399400D01*
X13476050Y-18399400D01*
X13450914Y-18398165D01*
X13426019Y-18394472D01*
X13401606Y-18388357D01*
X13377911Y-18379879D01*
X13355160Y-18369119D01*
X13333574Y-18356180D01*
X13313360Y-18341189D01*
X13294712Y-18324288D01*
X13277811Y-18305640D01*
X13262820Y-18285426D01*
X13249881Y-18263840D01*
X13239121Y-18241089D01*
X13230643Y-18217394D01*
X13224528Y-18192981D01*
X13220835Y-18168086D01*
X13219600Y-18142950D01*
X13219600Y-17205050D01*
X13220835Y-17179914D01*
X13224528Y-17155019D01*
X13230643Y-17130606D01*
X13239121Y-17106911D01*
X13249881Y-17084160D01*
X13262820Y-17062574D01*
X13277811Y-17042360D01*
X13294712Y-17023712D01*
X13313360Y-17006811D01*
X13333574Y-16991820D01*
X13355160Y-16978881D01*
X13377911Y-16968121D01*
X13401606Y-16959643D01*
X13426019Y-16953528D01*
X13450914Y-16949835D01*
X13476050Y-16948600D01*
X13988950Y-16948600D01*
X14014086Y-16949835D01*
X14014086Y-16949835D01*
G37*
D18*
X13732500Y-17674000D03*
G04 #@! TD*
D17*
G04 #@! TO.C,C9*
G36*
X25444086Y-23045835D02*
X25468981Y-23049528D01*
X25493394Y-23055643D01*
X25517089Y-23064121D01*
X25539840Y-23074881D01*
X25561426Y-23087820D01*
X25581640Y-23102811D01*
X25600288Y-23119712D01*
X25617189Y-23138360D01*
X25632180Y-23158574D01*
X25645119Y-23180160D01*
X25655879Y-23202911D01*
X25664357Y-23226606D01*
X25670472Y-23251019D01*
X25674165Y-23275914D01*
X25675400Y-23301050D01*
X25675400Y-24238950D01*
X25674165Y-24264086D01*
X25670472Y-24288981D01*
X25664357Y-24313394D01*
X25655879Y-24337089D01*
X25645119Y-24359840D01*
X25632180Y-24381426D01*
X25617189Y-24401640D01*
X25600288Y-24420288D01*
X25581640Y-24437189D01*
X25561426Y-24452180D01*
X25539840Y-24465119D01*
X25517089Y-24475879D01*
X25493394Y-24484357D01*
X25468981Y-24490472D01*
X25444086Y-24494165D01*
X25418950Y-24495400D01*
X24906050Y-24495400D01*
X24880914Y-24494165D01*
X24856019Y-24490472D01*
X24831606Y-24484357D01*
X24807911Y-24475879D01*
X24785160Y-24465119D01*
X24763574Y-24452180D01*
X24743360Y-24437189D01*
X24724712Y-24420288D01*
X24707811Y-24401640D01*
X24692820Y-24381426D01*
X24679881Y-24359840D01*
X24669121Y-24337089D01*
X24660643Y-24313394D01*
X24654528Y-24288981D01*
X24650835Y-24264086D01*
X24649600Y-24238950D01*
X24649600Y-23301050D01*
X24650835Y-23275914D01*
X24654528Y-23251019D01*
X24660643Y-23226606D01*
X24669121Y-23202911D01*
X24679881Y-23180160D01*
X24692820Y-23158574D01*
X24707811Y-23138360D01*
X24724712Y-23119712D01*
X24743360Y-23102811D01*
X24763574Y-23087820D01*
X24785160Y-23074881D01*
X24807911Y-23064121D01*
X24831606Y-23055643D01*
X24856019Y-23049528D01*
X24880914Y-23045835D01*
X24906050Y-23044600D01*
X25418950Y-23044600D01*
X25444086Y-23045835D01*
X25444086Y-23045835D01*
G37*
D18*
X25162500Y-23770000D03*
D17*
G36*
X27319086Y-23045835D02*
X27343981Y-23049528D01*
X27368394Y-23055643D01*
X27392089Y-23064121D01*
X27414840Y-23074881D01*
X27436426Y-23087820D01*
X27456640Y-23102811D01*
X27475288Y-23119712D01*
X27492189Y-23138360D01*
X27507180Y-23158574D01*
X27520119Y-23180160D01*
X27530879Y-23202911D01*
X27539357Y-23226606D01*
X27545472Y-23251019D01*
X27549165Y-23275914D01*
X27550400Y-23301050D01*
X27550400Y-24238950D01*
X27549165Y-24264086D01*
X27545472Y-24288981D01*
X27539357Y-24313394D01*
X27530879Y-24337089D01*
X27520119Y-24359840D01*
X27507180Y-24381426D01*
X27492189Y-24401640D01*
X27475288Y-24420288D01*
X27456640Y-24437189D01*
X27436426Y-24452180D01*
X27414840Y-24465119D01*
X27392089Y-24475879D01*
X27368394Y-24484357D01*
X27343981Y-24490472D01*
X27319086Y-24494165D01*
X27293950Y-24495400D01*
X26781050Y-24495400D01*
X26755914Y-24494165D01*
X26731019Y-24490472D01*
X26706606Y-24484357D01*
X26682911Y-24475879D01*
X26660160Y-24465119D01*
X26638574Y-24452180D01*
X26618360Y-24437189D01*
X26599712Y-24420288D01*
X26582811Y-24401640D01*
X26567820Y-24381426D01*
X26554881Y-24359840D01*
X26544121Y-24337089D01*
X26535643Y-24313394D01*
X26529528Y-24288981D01*
X26525835Y-24264086D01*
X26524600Y-24238950D01*
X26524600Y-23301050D01*
X26525835Y-23275914D01*
X26529528Y-23251019D01*
X26535643Y-23226606D01*
X26544121Y-23202911D01*
X26554881Y-23180160D01*
X26567820Y-23158574D01*
X26582811Y-23138360D01*
X26599712Y-23119712D01*
X26618360Y-23102811D01*
X26638574Y-23087820D01*
X26660160Y-23074881D01*
X26682911Y-23064121D01*
X26706606Y-23055643D01*
X26731019Y-23049528D01*
X26755914Y-23045835D01*
X26781050Y-23044600D01*
X27293950Y-23044600D01*
X27319086Y-23045835D01*
X27319086Y-23045835D01*
G37*
D18*
X27037500Y-23770000D03*
G04 #@! TD*
D17*
G04 #@! TO.C,C10*
G36*
X27319086Y-31935835D02*
X27343981Y-31939528D01*
X27368394Y-31945643D01*
X27392089Y-31954121D01*
X27414840Y-31964881D01*
X27436426Y-31977820D01*
X27456640Y-31992811D01*
X27475288Y-32009712D01*
X27492189Y-32028360D01*
X27507180Y-32048574D01*
X27520119Y-32070160D01*
X27530879Y-32092911D01*
X27539357Y-32116606D01*
X27545472Y-32141019D01*
X27549165Y-32165914D01*
X27550400Y-32191050D01*
X27550400Y-33128950D01*
X27549165Y-33154086D01*
X27545472Y-33178981D01*
X27539357Y-33203394D01*
X27530879Y-33227089D01*
X27520119Y-33249840D01*
X27507180Y-33271426D01*
X27492189Y-33291640D01*
X27475288Y-33310288D01*
X27456640Y-33327189D01*
X27436426Y-33342180D01*
X27414840Y-33355119D01*
X27392089Y-33365879D01*
X27368394Y-33374357D01*
X27343981Y-33380472D01*
X27319086Y-33384165D01*
X27293950Y-33385400D01*
X26781050Y-33385400D01*
X26755914Y-33384165D01*
X26731019Y-33380472D01*
X26706606Y-33374357D01*
X26682911Y-33365879D01*
X26660160Y-33355119D01*
X26638574Y-33342180D01*
X26618360Y-33327189D01*
X26599712Y-33310288D01*
X26582811Y-33291640D01*
X26567820Y-33271426D01*
X26554881Y-33249840D01*
X26544121Y-33227089D01*
X26535643Y-33203394D01*
X26529528Y-33178981D01*
X26525835Y-33154086D01*
X26524600Y-33128950D01*
X26524600Y-32191050D01*
X26525835Y-32165914D01*
X26529528Y-32141019D01*
X26535643Y-32116606D01*
X26544121Y-32092911D01*
X26554881Y-32070160D01*
X26567820Y-32048574D01*
X26582811Y-32028360D01*
X26599712Y-32009712D01*
X26618360Y-31992811D01*
X26638574Y-31977820D01*
X26660160Y-31964881D01*
X26682911Y-31954121D01*
X26706606Y-31945643D01*
X26731019Y-31939528D01*
X26755914Y-31935835D01*
X26781050Y-31934600D01*
X27293950Y-31934600D01*
X27319086Y-31935835D01*
X27319086Y-31935835D01*
G37*
D18*
X27037500Y-32660000D03*
D17*
G36*
X25444086Y-31935835D02*
X25468981Y-31939528D01*
X25493394Y-31945643D01*
X25517089Y-31954121D01*
X25539840Y-31964881D01*
X25561426Y-31977820D01*
X25581640Y-31992811D01*
X25600288Y-32009712D01*
X25617189Y-32028360D01*
X25632180Y-32048574D01*
X25645119Y-32070160D01*
X25655879Y-32092911D01*
X25664357Y-32116606D01*
X25670472Y-32141019D01*
X25674165Y-32165914D01*
X25675400Y-32191050D01*
X25675400Y-33128950D01*
X25674165Y-33154086D01*
X25670472Y-33178981D01*
X25664357Y-33203394D01*
X25655879Y-33227089D01*
X25645119Y-33249840D01*
X25632180Y-33271426D01*
X25617189Y-33291640D01*
X25600288Y-33310288D01*
X25581640Y-33327189D01*
X25561426Y-33342180D01*
X25539840Y-33355119D01*
X25517089Y-33365879D01*
X25493394Y-33374357D01*
X25468981Y-33380472D01*
X25444086Y-33384165D01*
X25418950Y-33385400D01*
X24906050Y-33385400D01*
X24880914Y-33384165D01*
X24856019Y-33380472D01*
X24831606Y-33374357D01*
X24807911Y-33365879D01*
X24785160Y-33355119D01*
X24763574Y-33342180D01*
X24743360Y-33327189D01*
X24724712Y-33310288D01*
X24707811Y-33291640D01*
X24692820Y-33271426D01*
X24679881Y-33249840D01*
X24669121Y-33227089D01*
X24660643Y-33203394D01*
X24654528Y-33178981D01*
X24650835Y-33154086D01*
X24649600Y-33128950D01*
X24649600Y-32191050D01*
X24650835Y-32165914D01*
X24654528Y-32141019D01*
X24660643Y-32116606D01*
X24669121Y-32092911D01*
X24679881Y-32070160D01*
X24692820Y-32048574D01*
X24707811Y-32028360D01*
X24724712Y-32009712D01*
X24743360Y-31992811D01*
X24763574Y-31977820D01*
X24785160Y-31964881D01*
X24807911Y-31954121D01*
X24831606Y-31945643D01*
X24856019Y-31939528D01*
X24880914Y-31935835D01*
X24906050Y-31934600D01*
X25418950Y-31934600D01*
X25444086Y-31935835D01*
X25444086Y-31935835D01*
G37*
D18*
X25162500Y-32660000D03*
G04 #@! TD*
D17*
G04 #@! TO.C,C14*
G36*
X17824086Y-5265835D02*
X17848981Y-5269528D01*
X17873394Y-5275643D01*
X17897089Y-5284121D01*
X17919840Y-5294881D01*
X17941426Y-5307820D01*
X17961640Y-5322811D01*
X17980288Y-5339712D01*
X17997189Y-5358360D01*
X18012180Y-5378574D01*
X18025119Y-5400160D01*
X18035879Y-5422911D01*
X18044357Y-5446606D01*
X18050472Y-5471019D01*
X18054165Y-5495914D01*
X18055400Y-5521050D01*
X18055400Y-6458950D01*
X18054165Y-6484086D01*
X18050472Y-6508981D01*
X18044357Y-6533394D01*
X18035879Y-6557089D01*
X18025119Y-6579840D01*
X18012180Y-6601426D01*
X17997189Y-6621640D01*
X17980288Y-6640288D01*
X17961640Y-6657189D01*
X17941426Y-6672180D01*
X17919840Y-6685119D01*
X17897089Y-6695879D01*
X17873394Y-6704357D01*
X17848981Y-6710472D01*
X17824086Y-6714165D01*
X17798950Y-6715400D01*
X17286050Y-6715400D01*
X17260914Y-6714165D01*
X17236019Y-6710472D01*
X17211606Y-6704357D01*
X17187911Y-6695879D01*
X17165160Y-6685119D01*
X17143574Y-6672180D01*
X17123360Y-6657189D01*
X17104712Y-6640288D01*
X17087811Y-6621640D01*
X17072820Y-6601426D01*
X17059881Y-6579840D01*
X17049121Y-6557089D01*
X17040643Y-6533394D01*
X17034528Y-6508981D01*
X17030835Y-6484086D01*
X17029600Y-6458950D01*
X17029600Y-5521050D01*
X17030835Y-5495914D01*
X17034528Y-5471019D01*
X17040643Y-5446606D01*
X17049121Y-5422911D01*
X17059881Y-5400160D01*
X17072820Y-5378574D01*
X17087811Y-5358360D01*
X17104712Y-5339712D01*
X17123360Y-5322811D01*
X17143574Y-5307820D01*
X17165160Y-5294881D01*
X17187911Y-5284121D01*
X17211606Y-5275643D01*
X17236019Y-5269528D01*
X17260914Y-5265835D01*
X17286050Y-5264600D01*
X17798950Y-5264600D01*
X17824086Y-5265835D01*
X17824086Y-5265835D01*
G37*
D18*
X17542500Y-5990000D03*
D17*
G36*
X19699086Y-5265835D02*
X19723981Y-5269528D01*
X19748394Y-5275643D01*
X19772089Y-5284121D01*
X19794840Y-5294881D01*
X19816426Y-5307820D01*
X19836640Y-5322811D01*
X19855288Y-5339712D01*
X19872189Y-5358360D01*
X19887180Y-5378574D01*
X19900119Y-5400160D01*
X19910879Y-5422911D01*
X19919357Y-5446606D01*
X19925472Y-5471019D01*
X19929165Y-5495914D01*
X19930400Y-5521050D01*
X19930400Y-6458950D01*
X19929165Y-6484086D01*
X19925472Y-6508981D01*
X19919357Y-6533394D01*
X19910879Y-6557089D01*
X19900119Y-6579840D01*
X19887180Y-6601426D01*
X19872189Y-6621640D01*
X19855288Y-6640288D01*
X19836640Y-6657189D01*
X19816426Y-6672180D01*
X19794840Y-6685119D01*
X19772089Y-6695879D01*
X19748394Y-6704357D01*
X19723981Y-6710472D01*
X19699086Y-6714165D01*
X19673950Y-6715400D01*
X19161050Y-6715400D01*
X19135914Y-6714165D01*
X19111019Y-6710472D01*
X19086606Y-6704357D01*
X19062911Y-6695879D01*
X19040160Y-6685119D01*
X19018574Y-6672180D01*
X18998360Y-6657189D01*
X18979712Y-6640288D01*
X18962811Y-6621640D01*
X18947820Y-6601426D01*
X18934881Y-6579840D01*
X18924121Y-6557089D01*
X18915643Y-6533394D01*
X18909528Y-6508981D01*
X18905835Y-6484086D01*
X18904600Y-6458950D01*
X18904600Y-5521050D01*
X18905835Y-5495914D01*
X18909528Y-5471019D01*
X18915643Y-5446606D01*
X18924121Y-5422911D01*
X18934881Y-5400160D01*
X18947820Y-5378574D01*
X18962811Y-5358360D01*
X18979712Y-5339712D01*
X18998360Y-5322811D01*
X19018574Y-5307820D01*
X19040160Y-5294881D01*
X19062911Y-5284121D01*
X19086606Y-5275643D01*
X19111019Y-5269528D01*
X19135914Y-5265835D01*
X19161050Y-5264600D01*
X19673950Y-5264600D01*
X19699086Y-5265835D01*
X19699086Y-5265835D01*
G37*
D18*
X19417500Y-5990000D03*
G04 #@! TD*
D17*
G04 #@! TO.C,C3*
G36*
X30404086Y-26130835D02*
X30428981Y-26134528D01*
X30453394Y-26140643D01*
X30477089Y-26149121D01*
X30499840Y-26159881D01*
X30521426Y-26172820D01*
X30541640Y-26187811D01*
X30560288Y-26204712D01*
X30577189Y-26223360D01*
X30592180Y-26243574D01*
X30605119Y-26265160D01*
X30615879Y-26287911D01*
X30624357Y-26311606D01*
X30630472Y-26336019D01*
X30634165Y-26360914D01*
X30635400Y-26386050D01*
X30635400Y-26898950D01*
X30634165Y-26924086D01*
X30630472Y-26948981D01*
X30624357Y-26973394D01*
X30615879Y-26997089D01*
X30605119Y-27019840D01*
X30592180Y-27041426D01*
X30577189Y-27061640D01*
X30560288Y-27080288D01*
X30541640Y-27097189D01*
X30521426Y-27112180D01*
X30499840Y-27125119D01*
X30477089Y-27135879D01*
X30453394Y-27144357D01*
X30428981Y-27150472D01*
X30404086Y-27154165D01*
X30378950Y-27155400D01*
X29441050Y-27155400D01*
X29415914Y-27154165D01*
X29391019Y-27150472D01*
X29366606Y-27144357D01*
X29342911Y-27135879D01*
X29320160Y-27125119D01*
X29298574Y-27112180D01*
X29278360Y-27097189D01*
X29259712Y-27080288D01*
X29242811Y-27061640D01*
X29227820Y-27041426D01*
X29214881Y-27019840D01*
X29204121Y-26997089D01*
X29195643Y-26973394D01*
X29189528Y-26948981D01*
X29185835Y-26924086D01*
X29184600Y-26898950D01*
X29184600Y-26386050D01*
X29185835Y-26360914D01*
X29189528Y-26336019D01*
X29195643Y-26311606D01*
X29204121Y-26287911D01*
X29214881Y-26265160D01*
X29227820Y-26243574D01*
X29242811Y-26223360D01*
X29259712Y-26204712D01*
X29278360Y-26187811D01*
X29298574Y-26172820D01*
X29320160Y-26159881D01*
X29342911Y-26149121D01*
X29366606Y-26140643D01*
X29391019Y-26134528D01*
X29415914Y-26130835D01*
X29441050Y-26129600D01*
X30378950Y-26129600D01*
X30404086Y-26130835D01*
X30404086Y-26130835D01*
G37*
D18*
X29910000Y-26642500D03*
D17*
G36*
X30404086Y-28005835D02*
X30428981Y-28009528D01*
X30453394Y-28015643D01*
X30477089Y-28024121D01*
X30499840Y-28034881D01*
X30521426Y-28047820D01*
X30541640Y-28062811D01*
X30560288Y-28079712D01*
X30577189Y-28098360D01*
X30592180Y-28118574D01*
X30605119Y-28140160D01*
X30615879Y-28162911D01*
X30624357Y-28186606D01*
X30630472Y-28211019D01*
X30634165Y-28235914D01*
X30635400Y-28261050D01*
X30635400Y-28773950D01*
X30634165Y-28799086D01*
X30630472Y-28823981D01*
X30624357Y-28848394D01*
X30615879Y-28872089D01*
X30605119Y-28894840D01*
X30592180Y-28916426D01*
X30577189Y-28936640D01*
X30560288Y-28955288D01*
X30541640Y-28972189D01*
X30521426Y-28987180D01*
X30499840Y-29000119D01*
X30477089Y-29010879D01*
X30453394Y-29019357D01*
X30428981Y-29025472D01*
X30404086Y-29029165D01*
X30378950Y-29030400D01*
X29441050Y-29030400D01*
X29415914Y-29029165D01*
X29391019Y-29025472D01*
X29366606Y-29019357D01*
X29342911Y-29010879D01*
X29320160Y-29000119D01*
X29298574Y-28987180D01*
X29278360Y-28972189D01*
X29259712Y-28955288D01*
X29242811Y-28936640D01*
X29227820Y-28916426D01*
X29214881Y-28894840D01*
X29204121Y-28872089D01*
X29195643Y-28848394D01*
X29189528Y-28823981D01*
X29185835Y-28799086D01*
X29184600Y-28773950D01*
X29184600Y-28261050D01*
X29185835Y-28235914D01*
X29189528Y-28211019D01*
X29195643Y-28186606D01*
X29204121Y-28162911D01*
X29214881Y-28140160D01*
X29227820Y-28118574D01*
X29242811Y-28098360D01*
X29259712Y-28079712D01*
X29278360Y-28062811D01*
X29298574Y-28047820D01*
X29320160Y-28034881D01*
X29342911Y-28024121D01*
X29366606Y-28015643D01*
X29391019Y-28009528D01*
X29415914Y-28005835D01*
X29441050Y-28004600D01*
X30378950Y-28004600D01*
X30404086Y-28005835D01*
X30404086Y-28005835D01*
G37*
D18*
X29910000Y-28517500D03*
G04 #@! TD*
D17*
G04 #@! TO.C,C15*
G36*
X17667086Y-21267835D02*
X17691981Y-21271528D01*
X17716394Y-21277643D01*
X17740089Y-21286121D01*
X17762840Y-21296881D01*
X17784426Y-21309820D01*
X17804640Y-21324811D01*
X17823288Y-21341712D01*
X17840189Y-21360360D01*
X17855180Y-21380574D01*
X17868119Y-21402160D01*
X17878879Y-21424911D01*
X17887357Y-21448606D01*
X17893472Y-21473019D01*
X17897165Y-21497914D01*
X17898400Y-21523050D01*
X17898400Y-22460950D01*
X17897165Y-22486086D01*
X17893472Y-22510981D01*
X17887357Y-22535394D01*
X17878879Y-22559089D01*
X17868119Y-22581840D01*
X17855180Y-22603426D01*
X17840189Y-22623640D01*
X17823288Y-22642288D01*
X17804640Y-22659189D01*
X17784426Y-22674180D01*
X17762840Y-22687119D01*
X17740089Y-22697879D01*
X17716394Y-22706357D01*
X17691981Y-22712472D01*
X17667086Y-22716165D01*
X17641950Y-22717400D01*
X17129050Y-22717400D01*
X17103914Y-22716165D01*
X17079019Y-22712472D01*
X17054606Y-22706357D01*
X17030911Y-22697879D01*
X17008160Y-22687119D01*
X16986574Y-22674180D01*
X16966360Y-22659189D01*
X16947712Y-22642288D01*
X16930811Y-22623640D01*
X16915820Y-22603426D01*
X16902881Y-22581840D01*
X16892121Y-22559089D01*
X16883643Y-22535394D01*
X16877528Y-22510981D01*
X16873835Y-22486086D01*
X16872600Y-22460950D01*
X16872600Y-21523050D01*
X16873835Y-21497914D01*
X16877528Y-21473019D01*
X16883643Y-21448606D01*
X16892121Y-21424911D01*
X16902881Y-21402160D01*
X16915820Y-21380574D01*
X16930811Y-21360360D01*
X16947712Y-21341712D01*
X16966360Y-21324811D01*
X16986574Y-21309820D01*
X17008160Y-21296881D01*
X17030911Y-21286121D01*
X17054606Y-21277643D01*
X17079019Y-21271528D01*
X17103914Y-21267835D01*
X17129050Y-21266600D01*
X17641950Y-21266600D01*
X17667086Y-21267835D01*
X17667086Y-21267835D01*
G37*
D18*
X17385500Y-21992000D03*
D17*
G36*
X15792086Y-21267835D02*
X15816981Y-21271528D01*
X15841394Y-21277643D01*
X15865089Y-21286121D01*
X15887840Y-21296881D01*
X15909426Y-21309820D01*
X15929640Y-21324811D01*
X15948288Y-21341712D01*
X15965189Y-21360360D01*
X15980180Y-21380574D01*
X15993119Y-21402160D01*
X16003879Y-21424911D01*
X16012357Y-21448606D01*
X16018472Y-21473019D01*
X16022165Y-21497914D01*
X16023400Y-21523050D01*
X16023400Y-22460950D01*
X16022165Y-22486086D01*
X16018472Y-22510981D01*
X16012357Y-22535394D01*
X16003879Y-22559089D01*
X15993119Y-22581840D01*
X15980180Y-22603426D01*
X15965189Y-22623640D01*
X15948288Y-22642288D01*
X15929640Y-22659189D01*
X15909426Y-22674180D01*
X15887840Y-22687119D01*
X15865089Y-22697879D01*
X15841394Y-22706357D01*
X15816981Y-22712472D01*
X15792086Y-22716165D01*
X15766950Y-22717400D01*
X15254050Y-22717400D01*
X15228914Y-22716165D01*
X15204019Y-22712472D01*
X15179606Y-22706357D01*
X15155911Y-22697879D01*
X15133160Y-22687119D01*
X15111574Y-22674180D01*
X15091360Y-22659189D01*
X15072712Y-22642288D01*
X15055811Y-22623640D01*
X15040820Y-22603426D01*
X15027881Y-22581840D01*
X15017121Y-22559089D01*
X15008643Y-22535394D01*
X15002528Y-22510981D01*
X14998835Y-22486086D01*
X14997600Y-22460950D01*
X14997600Y-21523050D01*
X14998835Y-21497914D01*
X15002528Y-21473019D01*
X15008643Y-21448606D01*
X15017121Y-21424911D01*
X15027881Y-21402160D01*
X15040820Y-21380574D01*
X15055811Y-21360360D01*
X15072712Y-21341712D01*
X15091360Y-21324811D01*
X15111574Y-21309820D01*
X15133160Y-21296881D01*
X15155911Y-21286121D01*
X15179606Y-21277643D01*
X15204019Y-21271528D01*
X15228914Y-21267835D01*
X15254050Y-21266600D01*
X15766950Y-21266600D01*
X15792086Y-21267835D01*
X15792086Y-21267835D01*
G37*
D18*
X15510500Y-21992000D03*
G04 #@! TD*
D10*
G04 #@! TO.C,C7*
X1100000Y-24450000D03*
G04 #@! TD*
D17*
G04 #@! TO.C,R16*
G36*
X31794086Y-24061835D02*
X31818981Y-24065528D01*
X31843394Y-24071643D01*
X31867089Y-24080121D01*
X31889840Y-24090881D01*
X31911426Y-24103820D01*
X31931640Y-24118811D01*
X31950288Y-24135712D01*
X31967189Y-24154360D01*
X31982180Y-24174574D01*
X31995119Y-24196160D01*
X32005879Y-24218911D01*
X32014357Y-24242606D01*
X32020472Y-24267019D01*
X32024165Y-24291914D01*
X32025400Y-24317050D01*
X32025400Y-25254950D01*
X32024165Y-25280086D01*
X32020472Y-25304981D01*
X32014357Y-25329394D01*
X32005879Y-25353089D01*
X31995119Y-25375840D01*
X31982180Y-25397426D01*
X31967189Y-25417640D01*
X31950288Y-25436288D01*
X31931640Y-25453189D01*
X31911426Y-25468180D01*
X31889840Y-25481119D01*
X31867089Y-25491879D01*
X31843394Y-25500357D01*
X31818981Y-25506472D01*
X31794086Y-25510165D01*
X31768950Y-25511400D01*
X31256050Y-25511400D01*
X31230914Y-25510165D01*
X31206019Y-25506472D01*
X31181606Y-25500357D01*
X31157911Y-25491879D01*
X31135160Y-25481119D01*
X31113574Y-25468180D01*
X31093360Y-25453189D01*
X31074712Y-25436288D01*
X31057811Y-25417640D01*
X31042820Y-25397426D01*
X31029881Y-25375840D01*
X31019121Y-25353089D01*
X31010643Y-25329394D01*
X31004528Y-25304981D01*
X31000835Y-25280086D01*
X30999600Y-25254950D01*
X30999600Y-24317050D01*
X31000835Y-24291914D01*
X31004528Y-24267019D01*
X31010643Y-24242606D01*
X31019121Y-24218911D01*
X31029881Y-24196160D01*
X31042820Y-24174574D01*
X31057811Y-24154360D01*
X31074712Y-24135712D01*
X31093360Y-24118811D01*
X31113574Y-24103820D01*
X31135160Y-24090881D01*
X31157911Y-24080121D01*
X31181606Y-24071643D01*
X31206019Y-24065528D01*
X31230914Y-24061835D01*
X31256050Y-24060600D01*
X31768950Y-24060600D01*
X31794086Y-24061835D01*
X31794086Y-24061835D01*
G37*
D18*
X31512500Y-24786000D03*
D17*
G36*
X33669086Y-24061835D02*
X33693981Y-24065528D01*
X33718394Y-24071643D01*
X33742089Y-24080121D01*
X33764840Y-24090881D01*
X33786426Y-24103820D01*
X33806640Y-24118811D01*
X33825288Y-24135712D01*
X33842189Y-24154360D01*
X33857180Y-24174574D01*
X33870119Y-24196160D01*
X33880879Y-24218911D01*
X33889357Y-24242606D01*
X33895472Y-24267019D01*
X33899165Y-24291914D01*
X33900400Y-24317050D01*
X33900400Y-25254950D01*
X33899165Y-25280086D01*
X33895472Y-25304981D01*
X33889357Y-25329394D01*
X33880879Y-25353089D01*
X33870119Y-25375840D01*
X33857180Y-25397426D01*
X33842189Y-25417640D01*
X33825288Y-25436288D01*
X33806640Y-25453189D01*
X33786426Y-25468180D01*
X33764840Y-25481119D01*
X33742089Y-25491879D01*
X33718394Y-25500357D01*
X33693981Y-25506472D01*
X33669086Y-25510165D01*
X33643950Y-25511400D01*
X33131050Y-25511400D01*
X33105914Y-25510165D01*
X33081019Y-25506472D01*
X33056606Y-25500357D01*
X33032911Y-25491879D01*
X33010160Y-25481119D01*
X32988574Y-25468180D01*
X32968360Y-25453189D01*
X32949712Y-25436288D01*
X32932811Y-25417640D01*
X32917820Y-25397426D01*
X32904881Y-25375840D01*
X32894121Y-25353089D01*
X32885643Y-25329394D01*
X32879528Y-25304981D01*
X32875835Y-25280086D01*
X32874600Y-25254950D01*
X32874600Y-24317050D01*
X32875835Y-24291914D01*
X32879528Y-24267019D01*
X32885643Y-24242606D01*
X32894121Y-24218911D01*
X32904881Y-24196160D01*
X32917820Y-24174574D01*
X32932811Y-24154360D01*
X32949712Y-24135712D01*
X32968360Y-24118811D01*
X32988574Y-24103820D01*
X33010160Y-24090881D01*
X33032911Y-24080121D01*
X33056606Y-24071643D01*
X33081019Y-24065528D01*
X33105914Y-24061835D01*
X33131050Y-24060600D01*
X33643950Y-24060600D01*
X33669086Y-24061835D01*
X33669086Y-24061835D01*
G37*
D18*
X33387500Y-24786000D03*
G04 #@! TD*
D17*
G04 #@! TO.C,R12*
G36*
X31794086Y-6027835D02*
X31818981Y-6031528D01*
X31843394Y-6037643D01*
X31867089Y-6046121D01*
X31889840Y-6056881D01*
X31911426Y-6069820D01*
X31931640Y-6084811D01*
X31950288Y-6101712D01*
X31967189Y-6120360D01*
X31982180Y-6140574D01*
X31995119Y-6162160D01*
X32005879Y-6184911D01*
X32014357Y-6208606D01*
X32020472Y-6233019D01*
X32024165Y-6257914D01*
X32025400Y-6283050D01*
X32025400Y-7220950D01*
X32024165Y-7246086D01*
X32020472Y-7270981D01*
X32014357Y-7295394D01*
X32005879Y-7319089D01*
X31995119Y-7341840D01*
X31982180Y-7363426D01*
X31967189Y-7383640D01*
X31950288Y-7402288D01*
X31931640Y-7419189D01*
X31911426Y-7434180D01*
X31889840Y-7447119D01*
X31867089Y-7457879D01*
X31843394Y-7466357D01*
X31818981Y-7472472D01*
X31794086Y-7476165D01*
X31768950Y-7477400D01*
X31256050Y-7477400D01*
X31230914Y-7476165D01*
X31206019Y-7472472D01*
X31181606Y-7466357D01*
X31157911Y-7457879D01*
X31135160Y-7447119D01*
X31113574Y-7434180D01*
X31093360Y-7419189D01*
X31074712Y-7402288D01*
X31057811Y-7383640D01*
X31042820Y-7363426D01*
X31029881Y-7341840D01*
X31019121Y-7319089D01*
X31010643Y-7295394D01*
X31004528Y-7270981D01*
X31000835Y-7246086D01*
X30999600Y-7220950D01*
X30999600Y-6283050D01*
X31000835Y-6257914D01*
X31004528Y-6233019D01*
X31010643Y-6208606D01*
X31019121Y-6184911D01*
X31029881Y-6162160D01*
X31042820Y-6140574D01*
X31057811Y-6120360D01*
X31074712Y-6101712D01*
X31093360Y-6084811D01*
X31113574Y-6069820D01*
X31135160Y-6056881D01*
X31157911Y-6046121D01*
X31181606Y-6037643D01*
X31206019Y-6031528D01*
X31230914Y-6027835D01*
X31256050Y-6026600D01*
X31768950Y-6026600D01*
X31794086Y-6027835D01*
X31794086Y-6027835D01*
G37*
D18*
X31512500Y-6752000D03*
D17*
G36*
X33669086Y-6027835D02*
X33693981Y-6031528D01*
X33718394Y-6037643D01*
X33742089Y-6046121D01*
X33764840Y-6056881D01*
X33786426Y-6069820D01*
X33806640Y-6084811D01*
X33825288Y-6101712D01*
X33842189Y-6120360D01*
X33857180Y-6140574D01*
X33870119Y-6162160D01*
X33880879Y-6184911D01*
X33889357Y-6208606D01*
X33895472Y-6233019D01*
X33899165Y-6257914D01*
X33900400Y-6283050D01*
X33900400Y-7220950D01*
X33899165Y-7246086D01*
X33895472Y-7270981D01*
X33889357Y-7295394D01*
X33880879Y-7319089D01*
X33870119Y-7341840D01*
X33857180Y-7363426D01*
X33842189Y-7383640D01*
X33825288Y-7402288D01*
X33806640Y-7419189D01*
X33786426Y-7434180D01*
X33764840Y-7447119D01*
X33742089Y-7457879D01*
X33718394Y-7466357D01*
X33693981Y-7472472D01*
X33669086Y-7476165D01*
X33643950Y-7477400D01*
X33131050Y-7477400D01*
X33105914Y-7476165D01*
X33081019Y-7472472D01*
X33056606Y-7466357D01*
X33032911Y-7457879D01*
X33010160Y-7447119D01*
X32988574Y-7434180D01*
X32968360Y-7419189D01*
X32949712Y-7402288D01*
X32932811Y-7383640D01*
X32917820Y-7363426D01*
X32904881Y-7341840D01*
X32894121Y-7319089D01*
X32885643Y-7295394D01*
X32879528Y-7270981D01*
X32875835Y-7246086D01*
X32874600Y-7220950D01*
X32874600Y-6283050D01*
X32875835Y-6257914D01*
X32879528Y-6233019D01*
X32885643Y-6208606D01*
X32894121Y-6184911D01*
X32904881Y-6162160D01*
X32917820Y-6140574D01*
X32932811Y-6120360D01*
X32949712Y-6101712D01*
X32968360Y-6084811D01*
X32988574Y-6069820D01*
X33010160Y-6056881D01*
X33032911Y-6046121D01*
X33056606Y-6037643D01*
X33081019Y-6031528D01*
X33105914Y-6027835D01*
X33131050Y-6026600D01*
X33643950Y-6026600D01*
X33669086Y-6027835D01*
X33669086Y-6027835D01*
G37*
D18*
X33387500Y-6752000D03*
G04 #@! TD*
D17*
G04 #@! TO.C,R10*
G36*
X15030086Y-13139835D02*
X15054981Y-13143528D01*
X15079394Y-13149643D01*
X15103089Y-13158121D01*
X15125840Y-13168881D01*
X15147426Y-13181820D01*
X15167640Y-13196811D01*
X15186288Y-13213712D01*
X15203189Y-13232360D01*
X15218180Y-13252574D01*
X15231119Y-13274160D01*
X15241879Y-13296911D01*
X15250357Y-13320606D01*
X15256472Y-13345019D01*
X15260165Y-13369914D01*
X15261400Y-13395050D01*
X15261400Y-14332950D01*
X15260165Y-14358086D01*
X15256472Y-14382981D01*
X15250357Y-14407394D01*
X15241879Y-14431089D01*
X15231119Y-14453840D01*
X15218180Y-14475426D01*
X15203189Y-14495640D01*
X15186288Y-14514288D01*
X15167640Y-14531189D01*
X15147426Y-14546180D01*
X15125840Y-14559119D01*
X15103089Y-14569879D01*
X15079394Y-14578357D01*
X15054981Y-14584472D01*
X15030086Y-14588165D01*
X15004950Y-14589400D01*
X14492050Y-14589400D01*
X14466914Y-14588165D01*
X14442019Y-14584472D01*
X14417606Y-14578357D01*
X14393911Y-14569879D01*
X14371160Y-14559119D01*
X14349574Y-14546180D01*
X14329360Y-14531189D01*
X14310712Y-14514288D01*
X14293811Y-14495640D01*
X14278820Y-14475426D01*
X14265881Y-14453840D01*
X14255121Y-14431089D01*
X14246643Y-14407394D01*
X14240528Y-14382981D01*
X14236835Y-14358086D01*
X14235600Y-14332950D01*
X14235600Y-13395050D01*
X14236835Y-13369914D01*
X14240528Y-13345019D01*
X14246643Y-13320606D01*
X14255121Y-13296911D01*
X14265881Y-13274160D01*
X14278820Y-13252574D01*
X14293811Y-13232360D01*
X14310712Y-13213712D01*
X14329360Y-13196811D01*
X14349574Y-13181820D01*
X14371160Y-13168881D01*
X14393911Y-13158121D01*
X14417606Y-13149643D01*
X14442019Y-13143528D01*
X14466914Y-13139835D01*
X14492050Y-13138600D01*
X15004950Y-13138600D01*
X15030086Y-13139835D01*
X15030086Y-13139835D01*
G37*
D18*
X14748500Y-13864000D03*
D17*
G36*
X16905086Y-13139835D02*
X16929981Y-13143528D01*
X16954394Y-13149643D01*
X16978089Y-13158121D01*
X17000840Y-13168881D01*
X17022426Y-13181820D01*
X17042640Y-13196811D01*
X17061288Y-13213712D01*
X17078189Y-13232360D01*
X17093180Y-13252574D01*
X17106119Y-13274160D01*
X17116879Y-13296911D01*
X17125357Y-13320606D01*
X17131472Y-13345019D01*
X17135165Y-13369914D01*
X17136400Y-13395050D01*
X17136400Y-14332950D01*
X17135165Y-14358086D01*
X17131472Y-14382981D01*
X17125357Y-14407394D01*
X17116879Y-14431089D01*
X17106119Y-14453840D01*
X17093180Y-14475426D01*
X17078189Y-14495640D01*
X17061288Y-14514288D01*
X17042640Y-14531189D01*
X17022426Y-14546180D01*
X17000840Y-14559119D01*
X16978089Y-14569879D01*
X16954394Y-14578357D01*
X16929981Y-14584472D01*
X16905086Y-14588165D01*
X16879950Y-14589400D01*
X16367050Y-14589400D01*
X16341914Y-14588165D01*
X16317019Y-14584472D01*
X16292606Y-14578357D01*
X16268911Y-14569879D01*
X16246160Y-14559119D01*
X16224574Y-14546180D01*
X16204360Y-14531189D01*
X16185712Y-14514288D01*
X16168811Y-14495640D01*
X16153820Y-14475426D01*
X16140881Y-14453840D01*
X16130121Y-14431089D01*
X16121643Y-14407394D01*
X16115528Y-14382981D01*
X16111835Y-14358086D01*
X16110600Y-14332950D01*
X16110600Y-13395050D01*
X16111835Y-13369914D01*
X16115528Y-13345019D01*
X16121643Y-13320606D01*
X16130121Y-13296911D01*
X16140881Y-13274160D01*
X16153820Y-13252574D01*
X16168811Y-13232360D01*
X16185712Y-13213712D01*
X16204360Y-13196811D01*
X16224574Y-13181820D01*
X16246160Y-13168881D01*
X16268911Y-13158121D01*
X16292606Y-13149643D01*
X16317019Y-13143528D01*
X16341914Y-13139835D01*
X16367050Y-13138600D01*
X16879950Y-13138600D01*
X16905086Y-13139835D01*
X16905086Y-13139835D01*
G37*
D18*
X16623500Y-13864000D03*
G04 #@! TD*
D17*
G04 #@! TO.C,R14*
G36*
X33603085Y-15171835D02*
X33627980Y-15175528D01*
X33652393Y-15181643D01*
X33676088Y-15190121D01*
X33698839Y-15200881D01*
X33720425Y-15213820D01*
X33740639Y-15228811D01*
X33759287Y-15245712D01*
X33776188Y-15264360D01*
X33791179Y-15284574D01*
X33804118Y-15306160D01*
X33814878Y-15328911D01*
X33823356Y-15352606D01*
X33829471Y-15377019D01*
X33833164Y-15401914D01*
X33834399Y-15427050D01*
X33834399Y-16364950D01*
X33833164Y-16390086D01*
X33829471Y-16414981D01*
X33823356Y-16439394D01*
X33814878Y-16463089D01*
X33804118Y-16485840D01*
X33791179Y-16507426D01*
X33776188Y-16527640D01*
X33759287Y-16546288D01*
X33740639Y-16563189D01*
X33720425Y-16578180D01*
X33698839Y-16591119D01*
X33676088Y-16601879D01*
X33652393Y-16610357D01*
X33627980Y-16616472D01*
X33603085Y-16620165D01*
X33577949Y-16621400D01*
X33065049Y-16621400D01*
X33039913Y-16620165D01*
X33015018Y-16616472D01*
X32990605Y-16610357D01*
X32966910Y-16601879D01*
X32944159Y-16591119D01*
X32922573Y-16578180D01*
X32902359Y-16563189D01*
X32883711Y-16546288D01*
X32866810Y-16527640D01*
X32851819Y-16507426D01*
X32838880Y-16485840D01*
X32828120Y-16463089D01*
X32819642Y-16439394D01*
X32813527Y-16414981D01*
X32809834Y-16390086D01*
X32808599Y-16364950D01*
X32808599Y-15427050D01*
X32809834Y-15401914D01*
X32813527Y-15377019D01*
X32819642Y-15352606D01*
X32828120Y-15328911D01*
X32838880Y-15306160D01*
X32851819Y-15284574D01*
X32866810Y-15264360D01*
X32883711Y-15245712D01*
X32902359Y-15228811D01*
X32922573Y-15213820D01*
X32944159Y-15200881D01*
X32966910Y-15190121D01*
X32990605Y-15181643D01*
X33015018Y-15175528D01*
X33039913Y-15171835D01*
X33065049Y-15170600D01*
X33577949Y-15170600D01*
X33603085Y-15171835D01*
X33603085Y-15171835D01*
G37*
D18*
X33321499Y-15896000D03*
D17*
G36*
X31728085Y-15171835D02*
X31752980Y-15175528D01*
X31777393Y-15181643D01*
X31801088Y-15190121D01*
X31823839Y-15200881D01*
X31845425Y-15213820D01*
X31865639Y-15228811D01*
X31884287Y-15245712D01*
X31901188Y-15264360D01*
X31916179Y-15284574D01*
X31929118Y-15306160D01*
X31939878Y-15328911D01*
X31948356Y-15352606D01*
X31954471Y-15377019D01*
X31958164Y-15401914D01*
X31959399Y-15427050D01*
X31959399Y-16364950D01*
X31958164Y-16390086D01*
X31954471Y-16414981D01*
X31948356Y-16439394D01*
X31939878Y-16463089D01*
X31929118Y-16485840D01*
X31916179Y-16507426D01*
X31901188Y-16527640D01*
X31884287Y-16546288D01*
X31865639Y-16563189D01*
X31845425Y-16578180D01*
X31823839Y-16591119D01*
X31801088Y-16601879D01*
X31777393Y-16610357D01*
X31752980Y-16616472D01*
X31728085Y-16620165D01*
X31702949Y-16621400D01*
X31190049Y-16621400D01*
X31164913Y-16620165D01*
X31140018Y-16616472D01*
X31115605Y-16610357D01*
X31091910Y-16601879D01*
X31069159Y-16591119D01*
X31047573Y-16578180D01*
X31027359Y-16563189D01*
X31008711Y-16546288D01*
X30991810Y-16527640D01*
X30976819Y-16507426D01*
X30963880Y-16485840D01*
X30953120Y-16463089D01*
X30944642Y-16439394D01*
X30938527Y-16414981D01*
X30934834Y-16390086D01*
X30933599Y-16364950D01*
X30933599Y-15427050D01*
X30934834Y-15401914D01*
X30938527Y-15377019D01*
X30944642Y-15352606D01*
X30953120Y-15328911D01*
X30963880Y-15306160D01*
X30976819Y-15284574D01*
X30991810Y-15264360D01*
X31008711Y-15245712D01*
X31027359Y-15228811D01*
X31047573Y-15213820D01*
X31069159Y-15200881D01*
X31091910Y-15190121D01*
X31115605Y-15181643D01*
X31140018Y-15175528D01*
X31164913Y-15171835D01*
X31190049Y-15170600D01*
X31702949Y-15170600D01*
X31728085Y-15171835D01*
X31728085Y-15171835D01*
G37*
D18*
X31446499Y-15896000D03*
G04 #@! TD*
D19*
G04 #@! TO.C,D10*
X25500000Y-17950000D03*
X25500000Y-19350000D03*
G04 #@! TD*
G04 #@! TO.C,D11*
X25900000Y-28150000D03*
X25900000Y-26750000D03*
G04 #@! TD*
G04 #@! TO.C,D12*
X25500000Y-10350000D03*
X25500000Y-8950000D03*
G04 #@! TD*
D17*
G04 #@! TO.C,R20*
G36*
X27994086Y-10275835D02*
X28018981Y-10279528D01*
X28043394Y-10285643D01*
X28067089Y-10294121D01*
X28089840Y-10304881D01*
X28111426Y-10317820D01*
X28131640Y-10332811D01*
X28150288Y-10349712D01*
X28167189Y-10368360D01*
X28182180Y-10388574D01*
X28195119Y-10410160D01*
X28205879Y-10432911D01*
X28214357Y-10456606D01*
X28220472Y-10481019D01*
X28224165Y-10505914D01*
X28225400Y-10531050D01*
X28225400Y-11043950D01*
X28224165Y-11069086D01*
X28220472Y-11093981D01*
X28214357Y-11118394D01*
X28205879Y-11142089D01*
X28195119Y-11164840D01*
X28182180Y-11186426D01*
X28167189Y-11206640D01*
X28150288Y-11225288D01*
X28131640Y-11242189D01*
X28111426Y-11257180D01*
X28089840Y-11270119D01*
X28067089Y-11280879D01*
X28043394Y-11289357D01*
X28018981Y-11295472D01*
X27994086Y-11299165D01*
X27968950Y-11300400D01*
X27031050Y-11300400D01*
X27005914Y-11299165D01*
X26981019Y-11295472D01*
X26956606Y-11289357D01*
X26932911Y-11280879D01*
X26910160Y-11270119D01*
X26888574Y-11257180D01*
X26868360Y-11242189D01*
X26849712Y-11225288D01*
X26832811Y-11206640D01*
X26817820Y-11186426D01*
X26804881Y-11164840D01*
X26794121Y-11142089D01*
X26785643Y-11118394D01*
X26779528Y-11093981D01*
X26775835Y-11069086D01*
X26774600Y-11043950D01*
X26774600Y-10531050D01*
X26775835Y-10505914D01*
X26779528Y-10481019D01*
X26785643Y-10456606D01*
X26794121Y-10432911D01*
X26804881Y-10410160D01*
X26817820Y-10388574D01*
X26832811Y-10368360D01*
X26849712Y-10349712D01*
X26868360Y-10332811D01*
X26888574Y-10317820D01*
X26910160Y-10304881D01*
X26932911Y-10294121D01*
X26956606Y-10285643D01*
X26981019Y-10279528D01*
X27005914Y-10275835D01*
X27031050Y-10274600D01*
X27968950Y-10274600D01*
X27994086Y-10275835D01*
X27994086Y-10275835D01*
G37*
D18*
X27500000Y-10787500D03*
D17*
G36*
X27994086Y-8400835D02*
X28018981Y-8404528D01*
X28043394Y-8410643D01*
X28067089Y-8419121D01*
X28089840Y-8429881D01*
X28111426Y-8442820D01*
X28131640Y-8457811D01*
X28150288Y-8474712D01*
X28167189Y-8493360D01*
X28182180Y-8513574D01*
X28195119Y-8535160D01*
X28205879Y-8557911D01*
X28214357Y-8581606D01*
X28220472Y-8606019D01*
X28224165Y-8630914D01*
X28225400Y-8656050D01*
X28225400Y-9168950D01*
X28224165Y-9194086D01*
X28220472Y-9218981D01*
X28214357Y-9243394D01*
X28205879Y-9267089D01*
X28195119Y-9289840D01*
X28182180Y-9311426D01*
X28167189Y-9331640D01*
X28150288Y-9350288D01*
X28131640Y-9367189D01*
X28111426Y-9382180D01*
X28089840Y-9395119D01*
X28067089Y-9405879D01*
X28043394Y-9414357D01*
X28018981Y-9420472D01*
X27994086Y-9424165D01*
X27968950Y-9425400D01*
X27031050Y-9425400D01*
X27005914Y-9424165D01*
X26981019Y-9420472D01*
X26956606Y-9414357D01*
X26932911Y-9405879D01*
X26910160Y-9395119D01*
X26888574Y-9382180D01*
X26868360Y-9367189D01*
X26849712Y-9350288D01*
X26832811Y-9331640D01*
X26817820Y-9311426D01*
X26804881Y-9289840D01*
X26794121Y-9267089D01*
X26785643Y-9243394D01*
X26779528Y-9218981D01*
X26775835Y-9194086D01*
X26774600Y-9168950D01*
X26774600Y-8656050D01*
X26775835Y-8630914D01*
X26779528Y-8606019D01*
X26785643Y-8581606D01*
X26794121Y-8557911D01*
X26804881Y-8535160D01*
X26817820Y-8513574D01*
X26832811Y-8493360D01*
X26849712Y-8474712D01*
X26868360Y-8457811D01*
X26888574Y-8442820D01*
X26910160Y-8429881D01*
X26932911Y-8419121D01*
X26956606Y-8410643D01*
X26981019Y-8404528D01*
X27005914Y-8400835D01*
X27031050Y-8399600D01*
X27968950Y-8399600D01*
X27994086Y-8400835D01*
X27994086Y-8400835D01*
G37*
D18*
X27500000Y-8912500D03*
G04 #@! TD*
D17*
G04 #@! TO.C,R21*
G36*
X27994086Y-17200835D02*
X28018981Y-17204528D01*
X28043394Y-17210643D01*
X28067089Y-17219121D01*
X28089840Y-17229881D01*
X28111426Y-17242820D01*
X28131640Y-17257811D01*
X28150288Y-17274712D01*
X28167189Y-17293360D01*
X28182180Y-17313574D01*
X28195119Y-17335160D01*
X28205879Y-17357911D01*
X28214357Y-17381606D01*
X28220472Y-17406019D01*
X28224165Y-17430914D01*
X28225400Y-17456050D01*
X28225400Y-17968950D01*
X28224165Y-17994086D01*
X28220472Y-18018981D01*
X28214357Y-18043394D01*
X28205879Y-18067089D01*
X28195119Y-18089840D01*
X28182180Y-18111426D01*
X28167189Y-18131640D01*
X28150288Y-18150288D01*
X28131640Y-18167189D01*
X28111426Y-18182180D01*
X28089840Y-18195119D01*
X28067089Y-18205879D01*
X28043394Y-18214357D01*
X28018981Y-18220472D01*
X27994086Y-18224165D01*
X27968950Y-18225400D01*
X27031050Y-18225400D01*
X27005914Y-18224165D01*
X26981019Y-18220472D01*
X26956606Y-18214357D01*
X26932911Y-18205879D01*
X26910160Y-18195119D01*
X26888574Y-18182180D01*
X26868360Y-18167189D01*
X26849712Y-18150288D01*
X26832811Y-18131640D01*
X26817820Y-18111426D01*
X26804881Y-18089840D01*
X26794121Y-18067089D01*
X26785643Y-18043394D01*
X26779528Y-18018981D01*
X26775835Y-17994086D01*
X26774600Y-17968950D01*
X26774600Y-17456050D01*
X26775835Y-17430914D01*
X26779528Y-17406019D01*
X26785643Y-17381606D01*
X26794121Y-17357911D01*
X26804881Y-17335160D01*
X26817820Y-17313574D01*
X26832811Y-17293360D01*
X26849712Y-17274712D01*
X26868360Y-17257811D01*
X26888574Y-17242820D01*
X26910160Y-17229881D01*
X26932911Y-17219121D01*
X26956606Y-17210643D01*
X26981019Y-17204528D01*
X27005914Y-17200835D01*
X27031050Y-17199600D01*
X27968950Y-17199600D01*
X27994086Y-17200835D01*
X27994086Y-17200835D01*
G37*
D18*
X27500000Y-17712500D03*
D17*
G36*
X27994086Y-19075835D02*
X28018981Y-19079528D01*
X28043394Y-19085643D01*
X28067089Y-19094121D01*
X28089840Y-19104881D01*
X28111426Y-19117820D01*
X28131640Y-19132811D01*
X28150288Y-19149712D01*
X28167189Y-19168360D01*
X28182180Y-19188574D01*
X28195119Y-19210160D01*
X28205879Y-19232911D01*
X28214357Y-19256606D01*
X28220472Y-19281019D01*
X28224165Y-19305914D01*
X28225400Y-19331050D01*
X28225400Y-19843950D01*
X28224165Y-19869086D01*
X28220472Y-19893981D01*
X28214357Y-19918394D01*
X28205879Y-19942089D01*
X28195119Y-19964840D01*
X28182180Y-19986426D01*
X28167189Y-20006640D01*
X28150288Y-20025288D01*
X28131640Y-20042189D01*
X28111426Y-20057180D01*
X28089840Y-20070119D01*
X28067089Y-20080879D01*
X28043394Y-20089357D01*
X28018981Y-20095472D01*
X27994086Y-20099165D01*
X27968950Y-20100400D01*
X27031050Y-20100400D01*
X27005914Y-20099165D01*
X26981019Y-20095472D01*
X26956606Y-20089357D01*
X26932911Y-20080879D01*
X26910160Y-20070119D01*
X26888574Y-20057180D01*
X26868360Y-20042189D01*
X26849712Y-20025288D01*
X26832811Y-20006640D01*
X26817820Y-19986426D01*
X26804881Y-19964840D01*
X26794121Y-19942089D01*
X26785643Y-19918394D01*
X26779528Y-19893981D01*
X26775835Y-19869086D01*
X26774600Y-19843950D01*
X26774600Y-19331050D01*
X26775835Y-19305914D01*
X26779528Y-19281019D01*
X26785643Y-19256606D01*
X26794121Y-19232911D01*
X26804881Y-19210160D01*
X26817820Y-19188574D01*
X26832811Y-19168360D01*
X26849712Y-19149712D01*
X26868360Y-19132811D01*
X26888574Y-19117820D01*
X26910160Y-19104881D01*
X26932911Y-19094121D01*
X26956606Y-19085643D01*
X26981019Y-19079528D01*
X27005914Y-19075835D01*
X27031050Y-19074600D01*
X27968950Y-19074600D01*
X27994086Y-19075835D01*
X27994086Y-19075835D01*
G37*
D18*
X27500000Y-19587500D03*
G04 #@! TD*
D17*
G04 #@! TO.C,R22*
G36*
X28194086Y-26100835D02*
X28218981Y-26104528D01*
X28243394Y-26110643D01*
X28267089Y-26119121D01*
X28289840Y-26129881D01*
X28311426Y-26142820D01*
X28331640Y-26157811D01*
X28350288Y-26174712D01*
X28367189Y-26193360D01*
X28382180Y-26213574D01*
X28395119Y-26235160D01*
X28405879Y-26257911D01*
X28414357Y-26281606D01*
X28420472Y-26306019D01*
X28424165Y-26330914D01*
X28425400Y-26356050D01*
X28425400Y-26868950D01*
X28424165Y-26894086D01*
X28420472Y-26918981D01*
X28414357Y-26943394D01*
X28405879Y-26967089D01*
X28395119Y-26989840D01*
X28382180Y-27011426D01*
X28367189Y-27031640D01*
X28350288Y-27050288D01*
X28331640Y-27067189D01*
X28311426Y-27082180D01*
X28289840Y-27095119D01*
X28267089Y-27105879D01*
X28243394Y-27114357D01*
X28218981Y-27120472D01*
X28194086Y-27124165D01*
X28168950Y-27125400D01*
X27231050Y-27125400D01*
X27205914Y-27124165D01*
X27181019Y-27120472D01*
X27156606Y-27114357D01*
X27132911Y-27105879D01*
X27110160Y-27095119D01*
X27088574Y-27082180D01*
X27068360Y-27067189D01*
X27049712Y-27050288D01*
X27032811Y-27031640D01*
X27017820Y-27011426D01*
X27004881Y-26989840D01*
X26994121Y-26967089D01*
X26985643Y-26943394D01*
X26979528Y-26918981D01*
X26975835Y-26894086D01*
X26974600Y-26868950D01*
X26974600Y-26356050D01*
X26975835Y-26330914D01*
X26979528Y-26306019D01*
X26985643Y-26281606D01*
X26994121Y-26257911D01*
X27004881Y-26235160D01*
X27017820Y-26213574D01*
X27032811Y-26193360D01*
X27049712Y-26174712D01*
X27068360Y-26157811D01*
X27088574Y-26142820D01*
X27110160Y-26129881D01*
X27132911Y-26119121D01*
X27156606Y-26110643D01*
X27181019Y-26104528D01*
X27205914Y-26100835D01*
X27231050Y-26099600D01*
X28168950Y-26099600D01*
X28194086Y-26100835D01*
X28194086Y-26100835D01*
G37*
D18*
X27700000Y-26612500D03*
D17*
G36*
X28194086Y-27975835D02*
X28218981Y-27979528D01*
X28243394Y-27985643D01*
X28267089Y-27994121D01*
X28289840Y-28004881D01*
X28311426Y-28017820D01*
X28331640Y-28032811D01*
X28350288Y-28049712D01*
X28367189Y-28068360D01*
X28382180Y-28088574D01*
X28395119Y-28110160D01*
X28405879Y-28132911D01*
X28414357Y-28156606D01*
X28420472Y-28181019D01*
X28424165Y-28205914D01*
X28425400Y-28231050D01*
X28425400Y-28743950D01*
X28424165Y-28769086D01*
X28420472Y-28793981D01*
X28414357Y-28818394D01*
X28405879Y-28842089D01*
X28395119Y-28864840D01*
X28382180Y-28886426D01*
X28367189Y-28906640D01*
X28350288Y-28925288D01*
X28331640Y-28942189D01*
X28311426Y-28957180D01*
X28289840Y-28970119D01*
X28267089Y-28980879D01*
X28243394Y-28989357D01*
X28218981Y-28995472D01*
X28194086Y-28999165D01*
X28168950Y-29000400D01*
X27231050Y-29000400D01*
X27205914Y-28999165D01*
X27181019Y-28995472D01*
X27156606Y-28989357D01*
X27132911Y-28980879D01*
X27110160Y-28970119D01*
X27088574Y-28957180D01*
X27068360Y-28942189D01*
X27049712Y-28925288D01*
X27032811Y-28906640D01*
X27017820Y-28886426D01*
X27004881Y-28864840D01*
X26994121Y-28842089D01*
X26985643Y-28818394D01*
X26979528Y-28793981D01*
X26975835Y-28769086D01*
X26974600Y-28743950D01*
X26974600Y-28231050D01*
X26975835Y-28205914D01*
X26979528Y-28181019D01*
X26985643Y-28156606D01*
X26994121Y-28132911D01*
X27004881Y-28110160D01*
X27017820Y-28088574D01*
X27032811Y-28068360D01*
X27049712Y-28049712D01*
X27068360Y-28032811D01*
X27088574Y-28017820D01*
X27110160Y-28004881D01*
X27132911Y-27994121D01*
X27156606Y-27985643D01*
X27181019Y-27979528D01*
X27205914Y-27975835D01*
X27231050Y-27974600D01*
X28168950Y-27974600D01*
X28194086Y-27975835D01*
X28194086Y-27975835D01*
G37*
D18*
X27700000Y-28487500D03*
G04 #@! TD*
D20*
G04 #@! TO.C,G*
X35300000Y-6750000D03*
G04 #@! TD*
G04 #@! TO.C,G*
X34900000Y-18050000D03*
G04 #@! TD*
G04 #@! TO.C,G*
X35100000Y-29450000D03*
G04 #@! TD*
G04 #@! TO.C,G*
X46300000Y-10650000D03*
G04 #@! TD*
G04 #@! TO.C,G*
X46300000Y-21950000D03*
G04 #@! TD*
G04 #@! TO.C,G*
X46300000Y-33350000D03*
G04 #@! TD*
D21*
G36*
X5272000Y-34438000D02*
X446000Y-34438000D01*
X446000Y-29485000D01*
X5272000Y-29485000D01*
X5272000Y-34438000D01*
X5272000Y-34438000D01*
G37*
X5272000Y-34438000D02*
X446000Y-34438000D01*
X446000Y-29485000D01*
X5272000Y-29485000D01*
X5272000Y-34438000D01*
G36*
X5272000Y-5482000D02*
X446000Y-5482000D01*
X446000Y-529000D01*
X5272000Y-529000D01*
X5272000Y-5482000D01*
X5272000Y-5482000D01*
G37*
X5272000Y-5482000D02*
X446000Y-5482000D01*
X446000Y-529000D01*
X5272000Y-529000D01*
X5272000Y-5482000D01*
G36*
X47817000Y-31771000D02*
X44515000Y-31771000D01*
X44515000Y-25929000D01*
X47817000Y-25929000D01*
X47817000Y-31771000D01*
X47817000Y-31771000D01*
G37*
X47817000Y-31771000D02*
X44515000Y-31771000D01*
X44515000Y-25929000D01*
X47817000Y-25929000D01*
X47817000Y-31771000D01*
G36*
X47817000Y-20341000D02*
X44515000Y-20341000D01*
X44515000Y-14499000D01*
X47817000Y-14499000D01*
X47817000Y-20341000D01*
X47817000Y-20341000D01*
G37*
X47817000Y-20341000D02*
X44515000Y-20341000D01*
X44515000Y-14499000D01*
X47817000Y-14499000D01*
X47817000Y-20341000D01*
G36*
X47817000Y-9165000D02*
X44515000Y-9165000D01*
X44515000Y-3323000D01*
X47817000Y-3323000D01*
X47817000Y-9165000D01*
X47817000Y-9165000D01*
G37*
X47817000Y-9165000D02*
X44515000Y-9165000D01*
X44515000Y-3323000D01*
X47817000Y-3323000D01*
X47817000Y-9165000D01*
M02*
