M48
;DRILL file {KiCad (5.0.0)} date 01/02/19 23:22:09
;FORMAT={3:3/ absolute / metric / keep zeros}
FMAT,2
METRIC,TZ
T1C0.400
T2C1.000
%
G90
G05
M71
T1
X000700Y-000910
X000700Y-002180
X000700Y-003450
X000700Y-004720
X000700Y-029866
X000700Y-031136
X000700Y-032406
X000700Y-033676
X001970Y-000910
X001970Y-002180
X001970Y-003450
X001970Y-004720
X001970Y-029866
X001970Y-031136
X001970Y-032406
X001970Y-033676
X003240Y-000910
X003240Y-002180
X003240Y-003450
X003240Y-004720
X003240Y-029866
X003240Y-031136
X003240Y-032406
X003240Y-033676
X004510Y-000910
X004510Y-002180
X004510Y-003450
X004510Y-004720
X004510Y-029866
X004510Y-031136
X004510Y-032406
X004510Y-033676
X007000Y-022000
X008320Y-022500
X008828Y-010308
X008828Y-011578
X008828Y-012848
X009860Y-014880
X010098Y-010308
X010098Y-011578
X010098Y-012848
X010098Y-019706
X011368Y-010308
X011368Y-011578
X011368Y-012848
X011860Y-014880
X012638Y-010308
X012638Y-011578
X012638Y-012848
X013400Y-022230
X015350Y-029950
X015350Y-032550
X015400Y-027450
X015448Y-021992
X015670Y-017674
X016636Y-013864
X016956Y-010308
X017448Y-021971
X018226Y-017674
X018805Y-019198
X019480Y-008530
X019877Y-015261
X020258Y-005990
X021000Y-023750
X021909Y-013229
X023052Y-022754
X023433Y-027199
X024068Y-028723
X024576Y-014880
X024576Y-023770
X024576Y-032660
X027100Y-014880
X027100Y-023770
X027100Y-032660
X029100Y-021750
X029200Y-030450
X029500Y-012550
X030400Y-005450
X030400Y-015550
X030773Y-006202
X030900Y-024250
X031180Y-010054
X031180Y-018944
X031180Y-027834
X032450Y-008800
X032450Y-017690
X032450Y-026580
X032958Y-010308
X032958Y-019198
X032958Y-028088
X033700Y-024150
X033899Y-007349
X034400Y-016050
X035600Y-005050
X035600Y-013450
X035800Y-024150
X035900Y-015150
X036100Y-026050
X038600Y-001450
X039400Y-023750
X040000Y-012550
X042864Y-001672
X042864Y-013102
X042864Y-024786
X043880Y-003196
X043880Y-014626
X043889Y-026306
X044896Y-003958
X044896Y-005101
X044896Y-006244
X044896Y-007387
X044896Y-008530
X044896Y-014880
X044896Y-016023
X044896Y-017166
X044896Y-018309
X044896Y-019452
X044896Y-026310
X044896Y-027453
X044896Y-028596
X044896Y-029739
X044896Y-030882
X046166Y-003958
X046166Y-005101
X046166Y-006244
X046166Y-007387
X046166Y-008530
X046166Y-014880
X046166Y-016023
X046166Y-017166
X046166Y-018309
X046166Y-019452
X046166Y-026310
X046166Y-027453
X046166Y-028596
X046166Y-029739
X046166Y-030882
X047436Y-003958
X047436Y-005101
X047436Y-006244
X047436Y-007387
X047436Y-008530
X047436Y-014880
X047436Y-016023
X047436Y-017166
X047436Y-018309
X047436Y-019452
X047436Y-026310
X047436Y-027453
X047436Y-028596
X047436Y-029739
X047436Y-030882
T2
X007685Y-029739
X007685Y-032279
X010225Y-029739
X010225Y-032279
T0
M30
